<?xml version="1.0" encoding="utf-8"?>
<!-- Generator: Adobe Illustrator 22.1.0, SVG Export Plug-In . SVG Version: 6.00 Build 0)  -->
<svg version="1.1" id="Слой_1" xmlns="http://www.w3.org/2000/svg" xmlns:xlink="http://www.w3.org/1999/xlink" x="0px" y="0px"
	 viewBox="0 0 236 237" style="enable-background:new 0 0 236 237;" xml:space="preserve">
<style type="text/css">
	.st0{clip-path:url(#SVGID_2_);fill:#fff;}
</style>
<g>
	<defs>
		<rect id="SVGID_1_" width="236" height="237"/>
	</defs>
	<clipPath id="SVGID_2_">
		<use xlink:href="#SVGID_1_"  style="overflow:visible;"/>
	</clipPath>
	<path class="st0" d="M222.8,64.1c-8.3-16-20.3-30.2-34.8-40.9c-2.1-1.6-5.1-1.1-6.7,1c-1.6,2.1-1.1,5.1,1,6.7
		c13.4,9.9,24.4,22.9,32,37.6c8,15.4,12,32.1,12,49.6c0,59.7-48.6,108.3-108.3,108.3c-59.7,0-108.3-48.6-108.3-108.3
		S58.2,9.7,117.9,9.7c2.6,0,4.8-2.2,4.8-4.8c0-2.7-2.2-4.8-4.8-4.8C52.9,0.1,0,53,0,118.1S52.9,236,117.9,236
		c65,0,117.9-52.9,117.9-117.9C235.9,99.3,231.4,80.6,222.8,64.1"/>
	<path class="st0" d="M87.8,63.3c-1.5,0.9-2.4,2.4-2.4,4.2v105.3c0,2.7,2.1,4.8,4.8,4.8c2.6,0,4.8-2.1,4.8-4.8V75.9l71.1,42.3
		l-52.3,33.7c-2.2,1.4-2.9,4.4-1.4,6.6c1.4,2.2,4.4,2.9,6.6,1.4l58.8-37.9c1.4-0.9,2.2-2.5,2.2-4.1c0-1.7-0.9-3.2-2.3-4l-85-50.6
		C91.1,62.5,89.3,62.4,87.8,63.3"/>
</g>
</svg>
