<?xml version="1.0" encoding="utf-8"?>
<!-- Generator: Adobe Illustrator 22.1.0, SVG Export Plug-In . SVG Version: 6.00 Build 0)  -->
<svg version="1.1" id="Слой_1" xmlns="http://www.w3.org/2000/svg" xmlns:xlink="http://www.w3.org/1999/xlink" x="0px" y="0px"
	 viewBox="0 0 250 101.2" style="enable-background:new 0 0 250 101.2;" xml:space="preserve">
<style type="text/css">
	.st0{enable-background:new    ;}
	.st1{clip-path:url(#SVGID_2_);fill:none;stroke:#000000;stroke-width:6.385907e-02;stroke-miterlimit:10;}
	.st2{clip-path:url(#SVGID_4_);fill:none;stroke:#000000;stroke-width:6.385907e-02;stroke-miterlimit:10;}
	.st3{clip-path:url(#SVGID_6_);enable-background:new    ;}
	.st4{fill:none;stroke:#000000;stroke-width:6.385907e-02;stroke-miterlimit:10;}
	.st5{clip-path:url(#SVGID_6_);fill:none;stroke:#000000;stroke-width:6.385907e-02;stroke-miterlimit:10;}
	.st6{clip-path:url(#SVGID_8_);enable-background:new    ;}
	.st7{clip-path:url(#SVGID_8_);fill:none;stroke:#000000;stroke-width:6.385907e-02;stroke-miterlimit:10;}
	.st8{clip-path:url(#SVGID_10_);enable-background:new    ;}
	.st9{clip-path:url(#SVGID_10_);fill:none;stroke:#000000;stroke-width:6.385907e-02;stroke-miterlimit:10;}
	.st10{clip-path:url(#SVGID_12_);enable-background:new    ;}
	.st11{clip-path:url(#SVGID_12_);fill:none;stroke:#000000;stroke-width:6.385907e-02;stroke-miterlimit:10;}
	.st12{clip-path:url(#SVGID_14_);enable-background:new    ;}
	.st13{clip-path:url(#SVGID_14_);fill:none;stroke:#000000;stroke-width:6.385907e-02;stroke-miterlimit:10;}
	.st14{clip-path:url(#SVGID_16_);enable-background:new    ;}
	.st15{clip-path:url(#SVGID_16_);fill:none;stroke:#000000;stroke-width:6.385907e-02;stroke-miterlimit:10;}
	.st16{clip-path:url(#SVGID_18_);enable-background:new    ;}
	.st17{clip-path:url(#SVGID_18_);fill:none;stroke:#000000;stroke-width:6.385907e-02;stroke-miterlimit:10;}
	.st18{clip-path:url(#SVGID_20_);enable-background:new    ;}
	.st19{clip-path:url(#SVGID_20_);fill:none;stroke:#000000;stroke-width:6.385907e-02;stroke-miterlimit:10;}
</style>
<g>
	<g class="st0">
		<g class="st0">
			<defs>
				<path id="SVGID_1_" class="st0" d="M32.5,16.6c1.7,0.3,3.5,0.7,5.2,1.2c4.3,1.3,8.2,3.8,12,6.5c0.2,0.2,0.5,0.3,0.7,0.5
					c0.6,0.5,1.2,1,1.7,1.5c0.9,0.8,1.7,1.6,2.6,2.4c0.1,0.1,66.1,68.8,69.6,72.5c-4.7-0.7-93.2-14.1-94-14.2
					c-1.8-0.4-3.6-1-5.3-1.7C11.1,79.6,1.1,65.2,0.1,49.6c-0.2-3.4,0-6.6,0.7-9.8c1.6-7.8,5.4-14,11.2-18.3
					c5.2-3.9,11.1-5.6,17.8-5.2C30.7,16.4,31.6,16.5,32.5,16.6z"/>
			</defs>
			<clipPath id="SVGID_2_">
				<use xlink:href="#SVGID_1_"  style="overflow:visible;"/>
			</clipPath>
			<path class="st1" d="M32.5,16.6c1.7,0.3,3.5,0.7,5.2,1.2c4.3,1.3,8.2,3.8,12,6.5c0.2,0.2,0.5,0.3,0.7,0.5c0.6,0.5,1.2,1,1.7,1.5
				c0.9,0.8,1.7,1.6,2.6,2.4c0.1,0.1,66.1,68.8,69.6,72.5c-4.7-0.7-93.2-14.1-94-14.2c-1.8-0.4-3.6-1-5.3-1.7
				C11.1,79.6,1.1,65.2,0.1,49.6c-0.2-3.4,0-6.6,0.7-9.8c1.6-7.8,5.4-14,11.2-18.3c5.2-3.9,11.1-5.6,17.8-5.2
				C30.7,16.4,31.6,16.5,32.5,16.6z"/>
		</g>
		<g class="st0">
			<defs>
				<path id="SVGID_3_" class="st0" d="M217.3,17.4c0.9-0.1,1.8-0.2,2.8-0.3c6.7-0.3,12.7,1.5,17.9,5.4c5.9,4.4,9.6,10.6,11.3,18.4
					c0.7,3.2,0.8,6.4,0.6,9.8c-1.1,15.6-11.3,29.9-25.3,35.4c-1.8,0.7-3.6,1.2-5.4,1.6c-0.8,0.2-90.3,12.7-95,13.4
					c3.5-3.6,70.5-71.8,70.6-71.8c0.9-0.8,1.7-1.6,2.6-2.4c0.6-0.5,1.2-1,1.7-1.5c0.2-0.2,0.5-0.3,0.7-0.5c3.8-2.7,7.8-5.1,12.1-6.3
					C213.8,18.1,215.5,17.7,217.3,17.4z"/>
			</defs>
			<clipPath id="SVGID_4_">
				<use xlink:href="#SVGID_3_"  style="overflow:visible;"/>
			</clipPath>
			<path class="st2" d="M217.3,17.4c0.9-0.1,1.8-0.2,2.8-0.3c6.7-0.3,12.7,1.5,17.9,5.4c5.9,4.4,9.6,10.6,11.3,18.4
				c0.7,3.2,0.8,6.4,0.6,9.8c-1.1,15.6-11.3,29.9-25.3,35.4c-1.8,0.7-3.6,1.2-5.4,1.6c-0.8,0.2-90.3,12.7-95,13.4
				c3.5-3.6,70.5-71.8,70.6-71.8c0.9-0.8,1.7-1.6,2.6-2.4c0.6-0.5,1.2-1,1.7-1.5c0.2-0.2,0.5-0.3,0.7-0.5c3.8-2.7,7.8-5.1,12.1-6.3
				C213.8,18.1,215.5,17.7,217.3,17.4z"/>
		</g>
		<g class="st0">
			<defs>
				<path id="SVGID_5_" class="st0" d="M217.3,17.4c-1.8,0.2-3.5,0.6-5.3,1.2c-16.6-9.1-50-14.9-86.6-15.1S55,8.9,37.7,17.8
					c-1.7-0.5-3.5-1-5.2-1.2c18.3-9.5,54.1-15.3,93-15.2S199.7,7.8,217.3,17.4z"/>
			</defs>
			<clipPath id="SVGID_6_">
				<use xlink:href="#SVGID_5_"  style="overflow:visible;"/>
			</clipPath>
			<g class="st3">
				<g>
					<path class="st4" d="M217.3,17.4c-1.8,0.2-3.5,0.6-5.3,1.2c-16.6-9.1-50-14.9-86.6-15.1c0-0.8,0-1.5,0.1-2.1
						C164.3,1.6,199.7,7.8,217.3,17.4z"/>
					<path class="st4" d="M215.5,17.7c-17.3-9.5-52-15.5-90.1-15.7"/>
					<path class="st4" d="M213.8,18.1c-16.9-9.3-51-15.2-88.4-15.4"/>
					<path class="st4" d="M194.3,9c-1.3,0.4-2.7,1-4,1.7"/>
					<path class="st4" d="M162.6,3.5c-0.7,0.5-1.5,1.2-2.2,2"/>
				</g>
				<g>
					<path class="st4" d="M125.5,1.4c0,0.6,0,1.3-0.1,2.1C88.8,3.4,55,8.9,37.7,17.8c-1.7-0.5-3.5-1-5.2-1.2
						C50.8,7.1,86.6,1.3,125.5,1.4z"/>
					<path class="st4" d="M125.4,2C87.3,1.9,52.2,7.6,34.2,16.9"/>
					<path class="st4" d="M125.4,2.7C88,2.6,53.6,8.2,36,17.3"/>
					<path class="st4" d="M88.2,3.2c0.7,0.5,1.4,1.2,2.1,2"/>
					<path class="st4" d="M56.1,8.4c1.3,0.4,2.6,1,3.9,1.7"/>
				</g>
				<g>
					<path class="st4" d="M212,18.6c-4.3,1.3-8.3,3.7-12.1,6.3c-14.3-7.8-43.1-12.9-74.7-13c0-3.3,0.1-6.4,0.1-8.4
						C162,3.7,195.4,9.5,212,18.6z"/>
					<path class="st4" d="M190.3,10.7c-3.3,1.7-6.2,4.4-9.1,7.4"/>
					<path class="st4" d="M160.5,5.5c-1.8,1.9-3.4,4.9-5,8.2"/>
				</g>
				<g>
					<path class="st4" d="M125.4,3.5c-0.1,2-0.1,5.1-0.1,8.4c-31.6-0.1-60.7,4.6-75.6,12.3c-3.8-2.7-7.7-5.1-12-6.5
						C55,8.9,88.8,3.4,125.4,3.5z"/>
					<path class="st4" d="M90.2,5.2c1.7,2,3.2,5,4.7,8.2"/>
					<path class="st4" d="M60,10.1c3.2,1.7,6.1,4.5,8.9,7.5"/>
				</g>
			</g>
			<path class="st5" d="M217.3,17.4c-1.8,0.2-3.5,0.6-5.3,1.2c-16.6-9.1-50-14.9-86.6-15.1S55,8.9,37.7,17.8c-1.7-0.5-3.5-1-5.2-1.2
				c18.3-9.5,54.1-15.3,93-15.2S199.7,7.8,217.3,17.4z"/>
		</g>
		<g class="st0">
			<defs>
				<path id="SVGID_7_" class="st0" d="M212,18.6c-4.3,1.3-8.3,3.7-12.1,6.3c-14.3-7.8-43.1-12.9-74.7-13s-60.7,4.6-75.6,12.3
					c-3.8-2.7-7.7-5.1-12-6.5C55,8.9,88.8,3.4,125.4,3.5S195.4,9.5,212,18.6z"/>
			</defs>
			<clipPath id="SVGID_8_">
				<use xlink:href="#SVGID_7_"  style="overflow:visible;"/>
			</clipPath>
			<g class="st6">
				<g>
					<path class="st4" d="M217.3,17.4c-1.8,0.2-3.5,0.6-5.3,1.2c-16.6-9.1-50-14.9-86.6-15.1c0-0.8,0-1.5,0.1-2.1
						C164.3,1.6,199.7,7.8,217.3,17.4z"/>
					<path class="st4" d="M194.3,9c-1.3,0.4-2.7,1-4,1.7"/>
					<path class="st4" d="M162.6,3.5c-0.7,0.5-1.5,1.2-2.2,2"/>
				</g>
				<g>
					<path class="st4" d="M125.5,1.4c0,0.6,0,1.3-0.1,2.1C88.8,3.4,55,8.9,37.7,17.8c-1.7-0.5-3.5-1-5.2-1.2
						C50.8,7.1,86.6,1.3,125.5,1.4z"/>
					<path class="st4" d="M88.2,3.2c0.7,0.5,1.4,1.2,2.1,2"/>
					<path class="st4" d="M56.1,8.4c1.3,0.4,2.6,1,3.9,1.7"/>
				</g>
				<g>
					<path class="st4" d="M212,18.6c-4.3,1.3-8.3,3.7-12.1,6.3c-14.3-7.8-43.1-12.9-74.7-13c0-3.3,0.1-6.4,0.1-8.4
						C162,3.7,195.4,9.5,212,18.6z"/>
					<path class="st4" d="M207.8,20.2C192,11.6,160.2,6,125.4,5.9"/>
					<path class="st4" d="M203.8,22.4c-15-8.2-45.3-13.5-78.5-13.7"/>
					<path class="st4" d="M190.3,10.7c-3.3,1.7-6.2,4.4-9.1,7.4"/>
					<path class="st4" d="M160.5,5.5c-1.8,1.9-3.4,4.9-5,8.2"/>
				</g>
				<g>
					<path class="st4" d="M125.4,3.5c-0.1,2-0.1,5.1-0.1,8.4c-31.6-0.1-60.7,4.6-75.6,12.3c-3.8-2.7-7.7-5.1-12-6.5
						C55,8.9,88.8,3.4,125.4,3.5z"/>
					<path class="st4" d="M125.4,5.9C90.5,5.7,58.3,11,41.9,19.5"/>
					<path class="st4" d="M125.3,8.8c-33.2-0.2-63.8,4.8-79.5,13"/>
					<path class="st4" d="M90.2,5.2c1.7,2,3.2,5,4.7,8.2"/>
					<path class="st4" d="M60,10.1c3.2,1.7,6.1,4.5,8.9,7.5"/>
				</g>
				<g>
					<path class="st4" d="M199.9,25c-0.2,0.2-0.5,0.3-0.7,0.5c-14.2-7.8-42.7-12.7-74-12.9c0-0.2,0-0.4,0-0.6
						C156.8,12.1,185.6,17.1,199.9,25z"/>
					<path class="st4" d="M181.2,18.1c-0.2,0.2-0.3,0.4-0.5,0.6"/>
					<path class="st4" d="M155.5,13.6c-0.1,0.2-0.2,0.4-0.3,0.6"/>
				</g>
				<g>
					<path class="st4" d="M125.3,12c0,0.2,0,0.4,0,0.6c-31.3-0.1-60.2,4.6-74.9,12.2c-0.2-0.2-0.4-0.3-0.7-0.5
						C64.5,16.6,93.7,11.8,125.3,12z"/>
					<path class="st4" d="M94.9,13.4c0.1,0.2,0.2,0.4,0.3,0.6"/>
					<path class="st4" d="M68.9,17.6c0.2,0.2,0.3,0.4,0.5,0.6"/>
				</g>
			</g>
			<path class="st7" d="M212,18.6c-4.3,1.3-8.3,3.7-12.1,6.3c-14.3-7.8-43.1-12.9-74.7-13s-60.7,4.6-75.6,12.3
				c-3.8-2.7-7.7-5.1-12-6.5C55,8.9,88.8,3.4,125.4,3.5S195.4,9.5,212,18.6z"/>
		</g>
		<g class="st0">
			<defs>
				<path id="SVGID_9_" class="st0" d="M199.9,25c-0.2,0.2-0.5,0.3-0.7,0.5c-14.2-7.8-42.7-12.7-74-12.9s-60.2,4.6-74.9,12.2
					c-0.2-0.2-0.4-0.3-0.7-0.5c14.9-7.7,44-12.5,75.6-12.3S185.6,17.1,199.9,25z"/>
			</defs>
			<clipPath id="SVGID_10_">
				<use xlink:href="#SVGID_9_"  style="overflow:visible;"/>
			</clipPath>
			<g class="st8">
				<g>
					<path class="st4" d="M212,18.6c-4.3,1.3-8.3,3.7-12.1,6.3c-14.3-7.8-43.1-12.9-74.7-13c0-3.3,0.1-6.4,0.1-8.4
						C162,3.7,195.4,9.5,212,18.6z"/>
					<path class="st4" d="M190.3,10.7c-3.3,1.7-6.2,4.4-9.1,7.4"/>
					<path class="st4" d="M160.5,5.5c-1.8,1.9-3.4,4.9-5,8.2"/>
				</g>
				<g>
					<path class="st4" d="M125.4,3.5c-0.1,2-0.1,5.1-0.1,8.4c-31.6-0.1-60.7,4.6-75.6,12.3c-3.8-2.7-7.7-5.1-12-6.5
						C55,8.9,88.8,3.4,125.4,3.5z"/>
					<path class="st4" d="M90.2,5.2c1.7,2,3.2,5,4.7,8.2"/>
					<path class="st4" d="M60,10.1c3.2,1.7,6.1,4.5,8.9,7.5"/>
				</g>
				<g>
					<path class="st4" d="M199.9,25c-0.2,0.2-0.5,0.3-0.7,0.5c-14.2-7.8-42.7-12.7-74-12.9c0-0.2,0-0.4,0-0.6
						C156.8,12.1,185.6,17.1,199.9,25z"/>
					<path class="st4" d="M199.7,25.1c-14.3-7.8-42.9-12.8-74.4-13"/>
					<path class="st4" d="M199.5,25.3c-14.2-7.8-42.8-12.8-74.2-12.9"/>
					<path class="st4" d="M181.2,18.1c-0.2,0.2-0.3,0.4-0.5,0.6"/>
					<path class="st4" d="M155.5,13.6c-0.1,0.2-0.2,0.4-0.3,0.6"/>
				</g>
				<g>
					<path class="st4" d="M125.3,12c0,0.2,0,0.4,0,0.6c-31.3-0.1-60.2,4.6-74.9,12.2c-0.2-0.2-0.4-0.3-0.7-0.5
						C64.5,16.6,93.7,11.8,125.3,12z"/>
					<path class="st4" d="M125.3,12.2C93.8,12,64.7,16.8,49.9,24.4"/>
					<path class="st4" d="M125.2,12.4c-31.4-0.1-60.3,4.6-75.1,12.2"/>
					<path class="st4" d="M94.9,13.4c0.1,0.2,0.2,0.4,0.3,0.6"/>
					<path class="st4" d="M68.9,17.6c0.2,0.2,0.3,0.4,0.5,0.6"/>
				</g>
				<g>
					<path class="st4" d="M199.2,25.5c-0.6,0.5-1.2,1-1.7,1.5c-13.8-7.6-41.7-12.4-72.3-12.6c0-0.6,0-1.2,0-1.8
						C156.5,12.7,185.1,17.7,199.2,25.5z"/>
					<path class="st4" d="M180.7,18.7c-0.4,0.5-0.9,1.1-1.3,1.7"/>
					<path class="st4" d="M155.2,14.3c-0.2,0.6-0.5,1.2-0.7,1.8"/>
				</g>
				<g>
					<path class="st4" d="M125.2,12.6c0,0.6,0,1.2,0,1.8c-30.6-0.1-58.8,4.5-73.2,11.9c-0.6-0.5-1.1-1-1.7-1.5
						C65.1,17.1,93.9,12.4,125.2,12.6z"/>
					<path class="st4" d="M95.2,14c0.2,0.6,0.5,1.2,0.7,1.8"/>
					<path class="st4" d="M69.4,18.2c0.4,0.5,0.9,1.1,1.3,1.7"/>
				</g>
			</g>
			<path class="st9" d="M199.9,25c-0.2,0.2-0.5,0.3-0.7,0.5c-14.2-7.8-42.7-12.7-74-12.9s-60.2,4.6-74.9,12.2
				c-0.2-0.2-0.4-0.3-0.7-0.5c14.9-7.7,44-12.5,75.6-12.3S185.6,17.1,199.9,25z"/>
		</g>
		<g class="st0">
			<defs>
				<path id="SVGID_11_" class="st0" d="M199.2,25.5c-0.6,0.5-1.2,1-1.7,1.5c-13.8-7.6-41.7-12.4-72.3-12.6s-58.8,4.5-73.2,11.9
					c-0.6-0.5-1.1-1-1.7-1.5c14.7-7.6,43.6-12.4,74.9-12.2S185.1,17.7,199.2,25.5z"/>
			</defs>
			<clipPath id="SVGID_12_">
				<use xlink:href="#SVGID_11_"  style="overflow:visible;"/>
			</clipPath>
			<g class="st10">
				<g>
					<path class="st4" d="M199.9,25c-0.2,0.2-0.5,0.3-0.7,0.5c-14.2-7.8-42.7-12.7-74-12.9c0-0.2,0-0.4,0-0.6
						C156.8,12.1,185.6,17.1,199.9,25z"/>
					<path class="st4" d="M181.2,18.1c-0.2,0.2-0.3,0.4-0.5,0.6"/>
					<path class="st4" d="M155.5,13.6c-0.1,0.2-0.2,0.4-0.3,0.6"/>
				</g>
				<g>
					<path class="st4" d="M125.3,12c0,0.2,0,0.4,0,0.6c-31.3-0.1-60.2,4.6-74.9,12.2c-0.2-0.2-0.4-0.3-0.7-0.5
						C64.5,16.6,93.7,11.8,125.3,12z"/>
					<path class="st4" d="M94.9,13.4c0.1,0.2,0.2,0.4,0.3,0.6"/>
					<path class="st4" d="M68.9,17.6c0.2,0.2,0.3,0.4,0.5,0.6"/>
				</g>
				<g>
					<path class="st4" d="M199.2,25.5c-0.6,0.5-1.2,1-1.7,1.5c-13.8-7.6-41.7-12.4-72.3-12.6c0-0.6,0-1.2,0-1.8
						C156.5,12.7,185.1,17.7,199.2,25.5z"/>
					<path class="st4" d="M198.6,26c-14.1-7.7-42.4-12.6-73.4-12.8"/>
					<path class="st4" d="M198.1,26.5c-13.9-7.7-42-12.5-72.8-12.7"/>
					<path class="st4" d="M180.7,18.7c-0.4,0.5-0.9,1.1-1.3,1.7"/>
					<path class="st4" d="M155.2,14.3c-0.2,0.6-0.5,1.2-0.7,1.8"/>
				</g>
				<g>
					<path class="st4" d="M125.2,12.6c0,0.6,0,1.2,0,1.8c-30.6-0.1-58.8,4.5-73.2,11.9c-0.6-0.5-1.1-1-1.7-1.5
						C65.1,17.1,93.9,12.4,125.2,12.6z"/>
					<path class="st4" d="M125.2,13.2C94.2,13,65.5,17.7,50.9,25.3"/>
					<path class="st4" d="M125.2,13.8c-30.8-0.1-59.2,4.5-73.7,12"/>
					<path class="st4" d="M95.2,14c0.2,0.6,0.5,1.2,0.7,1.8"/>
					<path class="st4" d="M69.4,18.2c0.4,0.5,0.9,1.1,1.3,1.7"/>
				</g>
				<g>
					<path class="st4" d="M197.5,27c-0.9,0.8-1.8,1.6-2.6,2.4c-13.3-7.3-40.2-12-69.7-12.1c0-1,0-1.9,0-2.9
						C155.8,14.5,183.6,19.4,197.5,27z"/>
					<path class="st4" d="M179.4,20.4c-0.7,0.9-1.3,1.8-2,2.6"/>
					<path class="st4" d="M154.5,16c-0.4,0.9-0.7,1.9-1.1,2.8"/>
				</g>
				<g>
					<path class="st4" d="M125.2,14.4c0,0.9,0,1.9,0,2.9c-29.5-0.1-56.7,4.3-70.5,11.5c-0.9-0.8-1.7-1.6-2.6-2.4
						C66.5,18.8,94.7,14.2,125.2,14.4z"/>
					<path class="st4" d="M95.9,15.7c0.3,0.9,0.7,1.9,1,2.8"/>
					<path class="st4" d="M70.6,19.9c0.6,0.9,1.3,1.8,1.9,2.7"/>
				</g>
			</g>
			<path class="st11" d="M199.2,25.5c-0.6,0.5-1.2,1-1.7,1.5c-13.8-7.6-41.7-12.4-72.3-12.6s-58.8,4.5-73.2,11.9
				c-0.6-0.5-1.1-1-1.7-1.5c14.7-7.6,43.6-12.4,74.9-12.2S185.1,17.7,199.2,25.5z"/>
		</g>
		<g class="st0">
			<defs>
				<path id="SVGID_13_" class="st0" d="M197.5,27c-0.9,0.8-1.8,1.6-2.6,2.4c-13.3-7.3-40.2-12-69.7-12.1
					c-29.5-0.1-56.7,4.3-70.5,11.5c-0.9-0.8-1.7-1.6-2.6-2.4c14.4-7.5,42.6-12.1,73.2-11.9S183.6,19.4,197.5,27z"/>
			</defs>
			<clipPath id="SVGID_14_">
				<use xlink:href="#SVGID_13_"  style="overflow:visible;"/>
			</clipPath>
			<g class="st12">
				<g>
					<path class="st4" d="M199.2,25.5c-0.6,0.5-1.2,1-1.7,1.5c-13.8-7.6-41.7-12.4-72.3-12.6c0-0.6,0-1.2,0-1.8
						C156.5,12.7,185.1,17.7,199.2,25.5z"/>
					<path class="st4" d="M180.7,18.7c-0.4,0.5-0.9,1.1-1.3,1.7"/>
					<path class="st4" d="M155.2,14.3c-0.2,0.6-0.5,1.2-0.7,1.8"/>
				</g>
				<g>
					<path class="st4" d="M125.2,12.6c0,0.6,0,1.2,0,1.8c-30.6-0.1-58.8,4.5-73.2,11.9c-0.6-0.5-1.1-1-1.7-1.5
						C65.1,17.1,93.9,12.4,125.2,12.6z"/>
					<path class="st4" d="M95.2,14c0.2,0.6,0.5,1.2,0.7,1.8"/>
					<path class="st4" d="M69.4,18.2c0.4,0.5,0.9,1.1,1.3,1.7"/>
				</g>
				<g>
					<path class="st4" d="M197.5,27c-0.9,0.8-1.8,1.6-2.6,2.4c-13.3-7.3-40.2-12-69.7-12.1c0-1,0-1.9,0-2.9
						C155.8,14.5,183.6,19.4,197.5,27z"/>
					<path class="st4" d="M196.6,27.8c-13.7-7.5-41.2-12.3-71.4-12.4"/>
					<path class="st4" d="M195.7,28.6c-13.5-7.4-40.7-12.1-70.5-12.3"/>
					<path class="st4" d="M179.4,20.4c-0.7,0.9-1.3,1.8-2,2.6"/>
					<path class="st4" d="M154.5,16c-0.4,0.9-0.7,1.9-1.1,2.8"/>
				</g>
				<g>
					<path class="st4" d="M125.2,14.4c0,0.9,0,1.9,0,2.9c-29.5-0.1-56.7,4.3-70.5,11.5c-0.9-0.8-1.7-1.6-2.6-2.4
						C66.5,18.8,94.7,14.2,125.2,14.4z"/>
					<path class="st4" d="M125.2,15.3C95,15.2,67.2,19.7,52.9,27.1"/>
					<path class="st4" d="M125.2,16.3c-29.8-0.1-57.4,4.4-71.4,11.6"/>
					<path class="st4" d="M95.9,15.7c0.3,0.9,0.7,1.9,1,2.8"/>
					<path class="st4" d="M70.6,19.9c0.6,0.9,1.3,1.8,1.9,2.7"/>
				</g>
				<g>
					<path class="st4" d="M194.9,29.4c-0.1,0.1-67.1,68.2-70.6,71.8c0-4.2,0.9-83.9,0.9-84C154.7,17.4,181.5,22,194.9,29.4z"/>
					<path class="st4" d="M177.4,23c0,0.1-50.5,74.3-53.1,78.2"/>
					<path class="st4" d="M153.4,18.8c0,0.1-27.7,78.3-29.1,82.4"/>
				</g>
				<g>
					<path class="st4" d="M125.2,17.2c0,0.1-0.9,79.8-0.9,84c-3.5-3.6-69.6-72.4-69.6-72.5C68.5,21.5,95.7,17.1,125.2,17.2z"/>
					<path class="st4" d="M96.9,18.6c0,0.1,26,78.5,27.4,82.6"/>
					<path class="st4" d="M72.6,22.5c0,0.1,49.1,74.7,51.7,78.7"/>
				</g>
			</g>
			<path class="st13" d="M197.5,27c-0.9,0.8-1.8,1.6-2.6,2.4c-13.3-7.3-40.2-12-69.7-12.1c-29.5-0.1-56.7,4.3-70.5,11.5
				c-0.9-0.8-1.7-1.6-2.6-2.4c14.4-7.5,42.6-12.1,73.2-11.9S183.6,19.4,197.5,27z"/>
		</g>
		<g class="st0">
			<defs>
				<path id="SVGID_15_" class="st0" d="M194.9,29.4c-0.1,0.1-67.1,68.2-70.6,71.8c-3.5-3.6-69.6-72.4-69.6-72.5
					c13.9-7.2,41.1-11.6,70.5-11.5C154.7,17.4,181.5,22,194.9,29.4z"/>
			</defs>
			<clipPath id="SVGID_16_">
				<use xlink:href="#SVGID_15_"  style="overflow:visible;"/>
			</clipPath>
			<g class="st14">
				<g>
					<path class="st4" d="M197.5,27c-0.9,0.8-1.8,1.6-2.6,2.4c-13.3-7.3-40.2-12-69.7-12.1c0-1,0-1.9,0-2.9
						C155.8,14.5,183.6,19.4,197.5,27z"/>
					<path class="st4" d="M179.4,20.4c-0.7,0.9-1.3,1.8-2,2.6"/>
					<path class="st4" d="M154.5,16c-0.4,0.9-0.7,1.9-1.1,2.8"/>
				</g>
				<g>
					<path class="st4" d="M125.2,14.4c0,0.9,0,1.9,0,2.9c-29.5-0.1-56.7,4.3-70.5,11.5c-0.9-0.8-1.7-1.6-2.6-2.4
						C66.5,18.8,94.7,14.2,125.2,14.4z"/>
					<path class="st4" d="M95.9,15.7c0.3,0.9,0.7,1.9,1,2.8"/>
					<path class="st4" d="M70.6,19.9c0.6,0.9,1.3,1.8,1.9,2.7"/>
				</g>
				<g>
					<path class="st4" d="M194.9,29.4c-0.1,0.1-67.1,68.2-70.6,71.8c0-4.2,0.9-83.9,0.9-84C154.7,17.4,181.5,22,194.9,29.4z"/>
					<path class="st4" d="M177.3,47.2c-10-5.5-30.2-9-52.4-9.1"/>
					<path class="st4" d="M144.1,81c-3.8-2.1-11.3-3.4-19.6-3.4"/>
					<path class="st4" d="M177.4,23c0,0.1-50.5,74.3-53.1,78.2"/>
					<path class="st4" d="M153.4,18.8c0,0.1-27.7,78.3-29.1,82.4"/>
				</g>
				<g>
					<path class="st4" d="M125.2,17.2c0,0.1-0.9,79.8-0.9,84c-3.5-3.6-69.6-72.4-69.6-72.5C68.5,21.5,95.7,17.1,125.2,17.2z"/>
					<path class="st4" d="M125,38.1c-22.1-0.1-42.6,3.2-53,8.6"/>
					<path class="st4" d="M124.5,77.6c-8.3,0-15.9,1.2-19.8,3.2"/>
					<path class="st4" d="M96.9,18.6c0,0.1,26,78.5,27.4,82.6"/>
					<path class="st4" d="M72.6,22.5c0,0.1,49.1,74.7,51.7,78.7"/>
				</g>
			</g>
			<path class="st15" d="M194.9,29.4c-0.1,0.1-67.1,68.2-70.6,71.8c-3.5-3.6-69.6-72.4-69.6-72.5c13.9-7.2,41.1-11.6,70.5-11.5
				C154.7,17.4,181.5,22,194.9,29.4z"/>
		</g>
		<g class="st0">
			<defs>
				<path id="SVGID_17_" class="st0" d="M234.7,20.5c1.1,0.6,2.2,1.3,3.3,2.1c5.9,4.4,9.6,10.6,11.3,18.4c0.7,3.2,0.8,6.4,0.6,9.8
					c-1.1,15.6-11.3,29.9-25.3,35.4c-1.8,0.7-3.6,1.2-5.4,1.6c-0.8,0.2-90.3,12.7-95,13.4c-4.7-0.7-93.2-14.1-94-14.2
					c-1.8-0.4-3.6-1-5.3-1.7C11.1,79.6,1.1,65.2,0.1,49.6c-0.2-3.4,0-6.6,0.7-9.8c1.6-7.8,5.4-14,11.2-18.3c1.2-0.9,2.4-1.7,3.7-2.3
					c1.1-0.6,4.6-2.3,9.1-4.2c1.7-0.7,4.1-1.6,5.8-2.2c1.5-0.5,3.6-1.2,5.2-1.7c1.2-0.4,2.9-0.9,4.1-1.2c1.6-0.4,3.7-1,5.2-1.4
					c2.8-0.7,6.5-1.5,9.3-2.1c1.7-0.4,4-0.8,5.7-1.1c1.7-0.3,3.9-0.7,5.6-1c3.3-0.5,7.6-1.2,10.9-1.6c1.8-0.2,4.1-0.5,5.9-0.7
					c1.8-0.2,4.1-0.4,5.9-0.6c1.8-0.2,4.2-0.3,6-0.5c1.8-0.1,4.3-0.3,6.1-0.4c1.8-0.1,4.3-0.2,6.2-0.3c1.9-0.1,4.4-0.1,6.2-0.2
					c1.9-0.1,4.4-0.1,6.3-0.1c1.9,0,4.5,0,6.4,0c1.9,0,4.5,0,6.4,0.1c1.9,0.1,4.4,0.1,6.3,0.2c1.9,0.1,4.4,0.2,6.3,0.3
					c1.9,0.1,4.4,0.2,6.3,0.4c3.6,0.3,8.4,0.7,11.9,1c1.8,0.2,4.2,0.4,6,0.7c1.8,0.2,4.3,0.5,6.1,0.8c3.2,0.5,7.6,1.1,10.8,1.7
					c1.8,0.3,4.1,0.8,5.8,1.1c1.8,0.3,4.3,0.9,6.1,1.3c2.7,0.6,6.4,1.5,9.1,2.2c1.8,0.5,4.1,1.2,5.8,1.7c1.2,0.4,2.7,0.9,3.9,1.3
					c2.3,0.8,6.3,2.2,9.3,3.5c1.1,0.5,2.7,1.2,3.8,1.7C231.1,18.6,233.2,19.6,234.7,20.5z"/>
			</defs>
			<clipPath id="SVGID_18_">
				<use xlink:href="#SVGID_17_"  style="overflow:visible;"/>
			</clipPath>
			<g class="st16">
				<g>
					<path class="st4" d="M124.3,101.2c4.7-0.7,94.2-13.2,95-13.4c-18-9.9-54.2-16.2-93.9-16.3C125.3,71.8,124.3,99.7,124.3,101.2z"
						/>
					<path class="st4" d="M150.8,97.5c-5-2.8-15.1-4.5-26.2-4.6"/>
					<path class="st4" d="M195.3,91.2c-13.5-7.4-40.5-12.1-70.2-12.2"/>
					<path class="st4" d="M124.3,101.2c3.5-1.1,70.9-21.7,71.5-22"/>
					<path class="st4" d="M124.3,101.2c1.9-1.4,38.7-27.3,39.1-27.6"/>
				</g>
				<g>
					<path class="st4" d="M124.3,101.2c0.1-1.5,1.1-29.4,1.1-29.7c-39.7-0.2-76.4,5.8-95,15.5C31.1,87.1,119.6,100.5,124.3,101.2z"
						/>
					<path class="st4" d="M124.6,92.9c-11.1-0.1-21.3,1.6-26.6,4.3"/>
					<path class="st4" d="M125.1,79C95.4,78.8,68,83.3,54,90.6"/>
					<path class="st4" d="M124.3,101.2c-1.8-1.4-36.7-27.7-37.1-28"/>
					<path class="st4" d="M124.3,101.2c-3.5-1.1-69.3-22.4-69.8-22.6"/>
				</g>
				<g>
					<path class="st4" d="M219.2,87.8c1.8-0.4,3.6-0.9,5.4-1.6c-19-10.4-57.2-17.1-99.2-17.3c0,1,0,1.9-0.1,2.5
						C165.1,71.6,201.3,77.9,219.2,87.8z"/>
					<path class="st4" d="M221.1,87.4c-18.3-10.1-55.2-16.5-95.7-16.7"/>
					<path class="st4" d="M222.8,86.8c-18.7-10.2-56.2-16.8-97.5-17"/>
					<path class="st4" d="M195.7,79.2c1.4-0.5,2.7-1.2,4.1-2.1"/>
					<path class="st4" d="M163.3,73.6c0.7-0.6,1.5-1.5,2.2-2.4"/>
				</g>
				<g>
					<path class="st4" d="M125.4,71.4c0-0.7,0-1.5,0.1-2.5C83.4,68.7,44.7,75,25,85.3c1.8,0.7,3.5,1.3,5.3,1.7
						C49,77.2,85.6,71.3,125.4,71.4z"/>
					<path class="st4" d="M125.4,70.7c-40.5-0.2-77.8,5.9-96.9,15.8"/>
					<path class="st4" d="M125.4,69.9c-41.2-0.2-79.3,6-98.7,16.1"/>
					<path class="st4" d="M87.2,73.2c-0.7-0.7-1.4-1.5-2.1-2.4"/>
					<path class="st4" d="M54.4,78.6c-1.3-0.6-2.7-1.3-4-2.1"/>
				</g>
				<g>
					<path class="st4" d="M224.6,86.2c14-5.5,24.2-19.8,25.3-35.4c-23.8-13-71.6-21.4-124.1-21.6c0,15.7-0.2,31.8-0.3,39.7
						C167.4,69.1,205.6,75.8,224.6,86.2z"/>
					<path class="st4" d="M237.2,78c-21.4-11.7-64.4-19.2-111.6-19.4"/>
					<path class="st4" d="M246,65.6C223,53,176.6,44.9,125.7,44.7"/>
					<path class="st4" d="M199.8,77.1c10.5-6.8,18.2-22,19-37.7"/>
					<path class="st4" d="M165.6,71.2c5.8-7.6,10-23.5,10.4-39.2"/>
				</g>
				<g>
					<path class="st4" d="M125.4,68.9c0.2-7.9,0.3-24,0.3-39.7c-52.5-0.2-101,7.7-125.7,20.5c1,15.6,11.1,30,24.9,35.6
						C44.7,75,83.4,68.7,125.4,68.9z"/>
					<path class="st4" d="M125.6,58.6c-47.2-0.2-90.8,6.9-113,18.4"/>
					<path class="st4" d="M125.7,44.7C74.8,44.5,27.9,52.1,3.9,64.6"/>
					<path class="st4" d="M85.1,70.8c-5.5-7.7-9.4-23.6-9.8-39.3"/>
					<path class="st4" d="M50.5,76.4C40.2,69.6,32.7,54.2,32,38.6"/>
				</g>
				<g>
					<path class="st4" d="M249.9,50.8c0.2-3.3,0-6.6-0.6-9.8C225.6,28,178,19.7,125.8,19.5c0,3,0,6.3,0,9.7
						C178.3,29.4,226.1,37.7,249.9,50.8z"/>
					<path class="st4" d="M250,47.5c-23.8-13.1-71.7-21.4-124.2-21.6"/>
					<path class="st4" d="M249.8,44.2c-23.8-13-71.6-21.4-124-21.6"/>
					<path class="st4" d="M218.8,39.4c0.2-3.4,0-6.6-0.5-9.7"/>
					<path class="st4" d="M176,32c0.1-3.4,0-6.6-0.2-9.7"/>
				</g>
				<g>
					<path class="st4" d="M125.8,29.2c0-3.4,0-6.6,0-9.7c-52.2-0.2-100.4,7.6-125,20.4c-0.7,3.2-0.9,6.4-0.7,9.8
						C24.8,36.8,73.2,28.9,125.8,29.2z"/>
					<path class="st4" d="M125.8,25.8C73.2,25.6,24.7,33.5,0,46.3"/>
					<path class="st4" d="M125.8,22.6C73.3,22.4,24.9,30.3,0.2,43.1"/>
					<path class="st4" d="M75.3,31.5c-0.1-3.4,0-6.6,0.3-9.7"/>
					<path class="st4" d="M32,38.6c-0.2-3.4,0-6.6,0.5-9.7"/>
				</g>
				<g>
					<path class="st4" d="M249.3,41c-1.6-7.8-5.4-14-11.3-18.4C216.5,10.8,173.2,3.2,125.7,3c0.1,3.4,0.1,8.9,0.1,16.5
						C178,19.7,225.6,28,249.3,41z"/>
					<path class="st4" d="M247,33.7C223.7,21,177,12.9,125.8,12.6"/>
					<path class="st4" d="M243.2,27.6C220.7,15.2,175.4,7.3,125.7,7.1"/>
					<path class="st4" d="M218.4,29.7c-1.2-7.7-4-13.5-8.5-17.4"/>
					<path class="st4" d="M175.8,22.3c-0.7-7.6-2.2-13.2-4.6-16.7"/>
				</g>
				<g>
					<path class="st4" d="M125.8,19.5c0-7.6,0-13.1-0.1-16.5C78.2,2.8,34.3,9.9,12,21.5C6.1,25.9,2.4,32.1,0.7,39.9
						C25.3,27.1,73.5,19.3,125.8,19.5z"/>
					<path class="st4" d="M125.8,12.6c-51.3-0.2-98.6,7.5-122.7,20"/>
					<path class="st4" d="M125.7,7.1C76,6.9,30.2,14.4,6.8,26.5"/>
					<path class="st4" d="M75.6,21.8c0.7-7.6,2.1-13.2,4.4-16.7"/>
					<path class="st4" d="M32.5,28.9c1.2-7.7,4-13.5,8.4-17.3"/>
				</g>
				<g>
					<path class="st4" d="M238,22.6c-5.2-3.9-11.2-5.7-17.9-5.4C202,7.2,165.5,0.9,125.5,0.7c0.1-1.4,0.1-0.7,0.2,2.3
						C173.2,3.2,216.5,10.8,238,22.6z"/>
					<path class="st4" d="M232.6,19.4C212.1,8.1,170.9,1,125.6,0.8"/>
					<path class="st4" d="M226.6,17.6C207.2,7,168.3,0.2,125.6,0"/>
					<path class="st4" d="M209.9,12.3c-3.9-3.4-8.4-4.6-13.5-3.8"/>
					<path class="st4" d="M171.1,5.6c-2.1-3.1-4.6-4-7.4-2.7"/>
				</g>
				<g>
					<path class="st4" d="M125.7,3c-0.1-3-0.1-3.7-0.2-2.3c-40-0.2-76.9,5.8-95.7,15.6C23.1,16,17.1,17.7,12,21.5
						C34.3,9.9,78.2,2.8,125.7,3z"/>
					<path class="st4" d="M125.6,0.8c-45.2-0.2-87,6.6-108.2,17.6"/>
					<path class="st4" d="M125.6,0C82.8-0.2,43.4,6.2,23.3,16.7"/>
					<path class="st4" d="M80,5.1c2-3.1,4.4-3.9,7-2.6"/>
					<path class="st4" d="M40.8,11.5C44.7,8.1,49.1,7,54,7.9"/>
				</g>
			</g>
			<path class="st17" d="M234.7,20.5c1.1,0.6,2.2,1.3,3.3,2.1c5.9,4.4,9.6,10.6,11.3,18.4c0.7,3.2,0.8,6.4,0.6,9.8
				c-1.1,15.6-11.3,29.9-25.3,35.4c-1.8,0.7-3.6,1.2-5.4,1.6c-0.8,0.2-90.3,12.7-95,13.4c-4.7-0.7-93.2-14.1-94-14.2
				c-1.8-0.4-3.6-1-5.3-1.7C11.1,79.6,1.1,65.2,0.1,49.6c-0.2-3.4,0-6.6,0.7-9.8c1.6-7.8,5.4-14,11.2-18.3c1.2-0.9,2.4-1.7,3.7-2.3
				c1.1-0.6,4.6-2.3,9.1-4.2c1.7-0.7,4.1-1.6,5.8-2.2c1.5-0.5,3.6-1.2,5.2-1.7c1.2-0.4,2.9-0.9,4.1-1.2c1.6-0.4,3.7-1,5.2-1.4
				c2.8-0.7,6.5-1.5,9.3-2.1c1.7-0.4,4-0.8,5.7-1.1c1.7-0.3,3.9-0.7,5.6-1c3.3-0.5,7.6-1.2,10.9-1.6c1.8-0.2,4.1-0.5,5.9-0.7
				c1.8-0.2,4.1-0.4,5.9-0.6c1.8-0.2,4.2-0.3,6-0.5c1.8-0.1,4.3-0.3,6.1-0.4c1.8-0.1,4.3-0.2,6.2-0.3c1.9-0.1,4.4-0.1,6.2-0.2
				c1.9-0.1,4.4-0.1,6.3-0.1c1.9,0,4.5,0,6.4,0c1.9,0,4.5,0,6.4,0.1c1.9,0.1,4.4,0.1,6.3,0.2c1.9,0.1,4.4,0.2,6.3,0.3
				c1.9,0.1,4.4,0.2,6.3,0.4c3.6,0.3,8.4,0.7,11.9,1c1.8,0.2,4.2,0.4,6,0.7c1.8,0.2,4.3,0.5,6.1,0.8c3.2,0.5,7.6,1.1,10.8,1.7
				c1.8,0.3,4.1,0.8,5.8,1.1c1.8,0.3,4.3,0.9,6.1,1.3c2.7,0.6,6.4,1.5,9.1,2.2c1.8,0.5,4.1,1.2,5.8,1.7c1.2,0.4,2.7,0.9,3.9,1.3
				c2.3,0.8,6.3,2.2,9.3,3.5c1.1,0.5,2.7,1.2,3.8,1.7C231.1,18.6,233.2,19.6,234.7,20.5z"/>
		</g>
		<g class="st0">
			<defs>
				<path id="SVGID_19_" class="st0" d="M125.6,0c5.6,0,9.9,0.1,12.7,0.3c1.9,0.1,4.4,0.2,6.2,0.3c1.8,0.1,4.3,0.2,6.1,0.4
					c1.8,0.1,4.2,0.3,6.1,0.5c1.8,0.2,4.1,0.4,5.9,0.5c1.8,0.2,4.1,0.4,5.9,0.6c1.8,0.2,4.1,0.5,5.9,0.7c3.2,0.4,7.6,1.1,10.8,1.7
					c1.7,0.3,3.9,0.7,5.5,1c1.7,0.3,4,0.8,5.7,1.2c2.8,0.6,6.4,1.5,9.1,2.2c1.6,0.4,3.6,1,5.2,1.5c1.2,0.4,2.8,0.8,4,1.2
					c1.6,0.5,3.6,1.2,5.2,1.8c1.8,0.7,4.1,1.6,5.9,2.3c1.7,0.7,3.8,1.7,5.5,2.5c1.1,0.5,2.5,1.3,3.6,1.9c-4.4-2.4-9.3-3.5-14.7-3.3
					c-0.9,0-1.9,0.1-2.8,0.3c-17.6-9.7-53-15.8-91.8-16s-74.7,5.7-93,15.2c-0.9-0.1-1.8-0.2-2.7-0.3c-5.1-0.3-9.8,0.7-14.1,2.9
					c1.6-0.8,3.8-1.9,5.5-2.6c1.1-0.5,2.5-1.1,3.6-1.5c2.1-0.8,4.8-1.8,6.9-2.6c1.9-0.7,4.6-1.5,6.5-2.1c3.4-1,8.6-2.3,10.4-2.7
					c1.7-0.4,4-0.9,5.8-1.3c3-0.6,7.1-1.3,10.2-1.9c1.8-0.3,4.2-0.7,6.1-0.9c1.8-0.3,4.1-0.6,5.9-0.8c3.5-0.4,8.1-0.9,11.5-1.2
					c1.9-0.2,4.3-0.4,6.2-0.5c1.8-0.1,4.3-0.3,6.2-0.4c3.7-0.2,8.7-0.4,12.4-0.5c1.9-0.1,4.4-0.1,6.4-0.1C121.1,0,123.6,0,125.6,0z"
					/>
			</defs>
			<clipPath id="SVGID_20_">
				<use xlink:href="#SVGID_19_"  style="overflow:visible;"/>
			</clipPath>
			<g class="st18">
				<g>
					<path class="st4" d="M238,22.6c-5.2-3.9-11.2-5.7-17.9-5.4C202,7.2,165.5,0.9,125.5,0.7c0.1-1.4,0.1-0.7,0.2,2.3
						C173.2,3.2,216.5,10.8,238,22.6z"/>
					<path class="st4" d="M232.6,19.4C212.1,8.1,170.9,1,125.6,0.8"/>
					<path class="st4" d="M226.6,17.6C207.2,7,168.3,0.2,125.6,0"/>
					<path class="st4" d="M209.9,12.3c-3.9-3.4-8.4-4.6-13.5-3.8"/>
					<path class="st4" d="M171.1,5.6c-2.1-3.1-4.6-4-7.4-2.7"/>
				</g>
				<g>
					<path class="st4" d="M125.7,3c-0.1-3-0.1-3.7-0.2-2.3c-40-0.2-76.9,5.8-95.7,15.6C23.1,16,17.1,17.7,12,21.5
						C34.3,9.9,78.2,2.8,125.7,3z"/>
					<path class="st4" d="M125.6,0.8c-45.2-0.2-87,6.6-108.2,17.6"/>
					<path class="st4" d="M125.6,0C82.8-0.2,43.4,6.2,23.3,16.7"/>
					<path class="st4" d="M80,5.1c2-3.1,4.4-3.9,7-2.6"/>
					<path class="st4" d="M40.8,11.5C44.7,8.1,49.1,7,54,7.9"/>
				</g>
				<g>
					<path class="st4" d="M220.1,17.2c-0.9,0-1.9,0.1-2.8,0.3c-17.6-9.7-53-15.8-91.8-16c0-0.3,0-0.5,0-0.7
						C165.5,0.9,202,7.2,220.1,17.2z"/>
					<path class="st4" d="M219.1,17.2c-17.9-9.8-54-16.1-93.7-16.3"/>
					<path class="st4" d="M218.2,17.3c-17.8-9.7-53.5-16-92.8-16.1"/>
					<path class="st4" d="M196.4,8.5c-0.7,0.1-1.4,0.3-2.1,0.5"/>
					<path class="st4" d="M163.8,2.9c-0.4,0.2-0.8,0.4-1.1,0.7"/>
				</g>
				<g>
					<path class="st4" d="M125.5,0.7c0,0.2,0,0.4,0,0.7c-38.8-0.2-74.7,5.7-93,15.2c-0.9-0.1-1.8-0.2-2.7-0.3
						C48.6,6.6,85.5,0.5,125.5,0.7z"/>
					<path class="st4" d="M125.5,0.9C85.9,0.8,49.3,6.7,30.7,16.4"/>
					<path class="st4" d="M125.5,1.2C86.2,1,50,6.9,31.6,16.5"/>
					<path class="st4" d="M87.1,2.5c0.4,0.2,0.7,0.4,1.1,0.7"/>
					<path class="st4" d="M54,7.9c0.7,0.1,1.4,0.3,2,0.5"/>
				</g>
			</g>
			<path class="st19" d="M125.6,0c5.6,0,9.9,0.1,12.7,0.3c1.9,0.1,4.4,0.2,6.2,0.3c1.8,0.1,4.3,0.2,6.1,0.4c1.8,0.1,4.2,0.3,6.1,0.5
				c1.8,0.2,4.1,0.4,5.9,0.5c1.8,0.2,4.1,0.4,5.9,0.6c1.8,0.2,4.1,0.5,5.9,0.7c3.2,0.4,7.6,1.1,10.8,1.7c1.7,0.3,3.9,0.7,5.5,1
				c1.7,0.3,4,0.8,5.7,1.2c2.8,0.6,6.4,1.5,9.1,2.2c1.6,0.4,3.6,1,5.2,1.5c1.2,0.4,2.8,0.8,4,1.2c1.6,0.5,3.6,1.2,5.2,1.8
				c1.8,0.7,4.1,1.6,5.9,2.3c1.7,0.7,3.8,1.7,5.5,2.5c1.1,0.5,2.5,1.3,3.6,1.9c-4.4-2.4-9.3-3.5-14.7-3.3c-0.9,0-1.9,0.1-2.8,0.3
				c-17.6-9.7-53-15.8-91.8-16s-74.7,5.7-93,15.2c-0.9-0.1-1.8-0.2-2.7-0.3c-5.1-0.3-9.8,0.7-14.1,2.9c1.6-0.8,3.8-1.9,5.5-2.6
				c1.1-0.5,2.5-1.1,3.6-1.5c2.1-0.8,4.8-1.8,6.9-2.6c1.9-0.7,4.6-1.5,6.5-2.1c3.4-1,8.6-2.3,10.4-2.7c1.7-0.4,4-0.9,5.8-1.3
				c3-0.6,7.1-1.3,10.2-1.9c1.8-0.3,4.2-0.7,6.1-0.9c1.8-0.3,4.1-0.6,5.9-0.8c3.5-0.4,8.1-0.9,11.5-1.2c1.9-0.2,4.3-0.4,6.2-0.5
				c1.8-0.1,4.3-0.3,6.2-0.4c3.7-0.2,8.7-0.4,12.4-0.5c1.9-0.1,4.4-0.1,6.4-0.1C121.1,0,123.6,0,125.6,0z"/>
		</g>
	</g>
</g>
</svg>
