<?xml version="1.0" encoding="utf-8"?>
<!-- Generator: Adobe Illustrator 23.0.1, SVG Export Plug-In . SVG Version: 6.00 Build 0)  -->
<svg version="1.1" id="Слой_1" xmlns="http://www.w3.org/2000/svg" xmlns:xlink="http://www.w3.org/1999/xlink" x="0px" y="0px"
	 viewBox="0 0 120 95" style="enable-background:new 0 0 120 95;" xml:space="preserve">
<style type="text/css">
	.st0{fill:#FFFFFF;}
	.st1{fill:none;}
</style>
<path class="st0" d="M0,0c40,0,80,0,120,0c0,31.7,0,63.4,0,95c-40,0-80,0-120,0C0,63.4,0,31.7,0,0z M4.6,70.5c37,0,74,0,110.9,0
	c0.1-0.3,0-66.2,0-66.4c-37,0-73.9,0-110.9,0C4.6,26.2,4.6,48.3,4.6,70.5z M102.2,82.4c0-1.2-0.2-2.4-0.8-3.5
	c-1.3-2.6-3.4-4.1-6.4-4.5c-1.4-0.2-2.8,0-4.2,0.5c-3,1.3-5.7,4.6-4.8,9.2c0.4,2,1.5,3.6,3.2,4.9c2.1,1.5,4.4,1.8,6.9,1.3
	C99,89.6,102.3,86.7,102.2,82.4z M28.5,82.4c0,1.5,0.3,2.9,1.1,4.2c1.4,2.2,3.4,3.5,6,3.8c1.4,0.2,2.7,0,4-0.5
	c2.2-0.8,4.8-3.1,5.1-6.7c0.1-1.3,0-2.6-0.5-3.9c-1.2-3-4.1-5-7.4-5c-1.3,0-2.5,0.1-3.7,0.7C30.2,76.6,28.6,79,28.5,82.4z M16.7,90
	c1,0,1.9,0,2.8,0c0-0.3,0-0.6,0-0.9s0-0.6,0-0.9s0-0.6,0-0.9s0-0.6,0-0.9s0-0.6,0-0.9s0-0.6,0-0.9c0.1,0.1,0.2,0.2,0.2,0.2
	c1.2,1.7,2.4,3.4,3.5,5.1c0.1,0.2,0.2,0.2,0.4,0.2c1,0,2,0,2.9,0c0.1,0,0.2,0,0.3,0c-1.4-1.9-2.8-3.8-4.2-5.6c0,0,0.1,0,0.1-0.1h0.1
	c1.7-0.2,2.9-1.3,3.5-2.8c0.3-0.8,0.4-1.6,0.4-2.4c-0.1-1.9-1.2-3.4-3-4.1c-0.8-0.3-1.7-0.4-2.6-0.4c-1.4,0-2.8,0-4.2,0
	c-0.1,0-0.2,0-0.2,0C16.7,79.8,16.7,84.9,16.7,90z M107.7,90c0-1.8,0-3.7,0-5.5c0,0,0,0,0.1,0c0.1,0.1,0.1,0.2,0.2,0.3
	c1.2,1.7,2.4,3.4,3.5,5.1c0.1,0.2,0.2,0.2,0.4,0.2c1,0,2,0,2.9,0c0.1,0,0.1,0,0.3,0c-1.4-1.9-2.8-3.8-4.2-5.6c0,0,0,0,0.1-0.1h0.1
	c1.7-0.2,2.8-1.2,3.5-2.7c0.4-0.8,0.5-1.7,0.4-2.6c-0.1-1.9-1.2-3.4-3-4c-0.9-0.3-1.8-0.4-2.7-0.4c-1.4,0-2.8,0-4.2,0
	c-0.1,0-0.2,0-0.2,0c-0.1,0.3,0,15.2,0,15.4C105.8,90,106.7,90,107.7,90z M47.9,90c0.5-1.3,1-2.7,1.5-4c1.9,0,3.8,0,5.7,0
	c0.5,1.3,1,2.6,1.5,4c1.1,0,2.1,0,3.2,0c-2.1-5.2-4.2-10.3-6.4-15.4c-0.8,0-1.6,0-2.3,0c-0.4,0.8-6.3,15.2-6.3,15.4
	C45.9,90,46.9,90,47.9,90z M75.6,85.9c-0.1,0-0.2,0-0.3,0c-0.9,0-1.8,0-2.8,0c-0.2,0-0.3,0.1-0.4,0.2c-0.6,0.7-1.3,1.1-2.1,1.4
	c-0.6,0.2-1.1,0.2-1.7,0.2c-1.1,0-2-0.3-2.8-1c-2.7-2.1-2.9-6-0.4-8.3c1.2-1.1,2.6-1.4,4.2-1.3c1.2,0.2,2.2,0.8,3,1.7
	c0.1,0.1,0.2,0.2,0.4,0.2c0.9,0,1.8,0,2.7,0c0.1,0,0.2,0,0.3,0c-0.1-0.1-0.1-0.2-0.1-0.3c-1.4-2.8-3.7-4.3-6.9-4.4
	c-1.4,0-2.7,0.2-3.9,0.9c-2.5,1.4-4,3.5-4.3,6.4c-0.1,1.4,0.1,2.7,0.6,3.9c1.5,3.4,5,5.6,9.4,4.6C72.9,89.6,74.5,88.1,75.6,85.9
	C75.5,86,75.5,86,75.6,85.9z M7.4,84.2c0.1,0,0.2,0,0.3,0c0.3,0,0.7,0,1,0c0.6,0,1.3,0,1.9-0.2c1.6-0.4,2.8-1.3,3.3-3
	c0.2-0.7,0.3-1.4,0.2-2.2c-0.2-1.9-1.2-3.2-3-3.9c-0.8-0.3-1.7-0.4-2.5-0.4c-1.3,0-2.6,0-4,0c-0.1,0-0.2,0-0.2,0
	c-0.1,0.4,0,15.2,0,15.4c0.9,0,1.8,0,2.8,0C7.4,88.1,7.4,86.2,7.4,84.2z M82.4,90c0-4.2,0-8.4,0-12.7c0.3,0,0.6,0,0.9,0s0.6,0,1,0
	c0.3,0,0.6,0,0.9,0c0-0.9,0-1.8,0-2.7c-2.9,0-5.7,0-8.5,0c0,0.9,0,1.8,0,2.7c0.9,0,1.9,0,2.8,0c0,0.5,0,0.9,0,1.3s0,0.8,0,1.3
	c0,0.4,0,0.9,0,1.3s0,0.8,0,1.3c0,0.4,0,0.8,0,1.3s0,0.8,0,1.3s0,0.8,0,1.3c0,0.4,0,0.9,0,1.3s0,0.8,0,1.3c0,0.4,0,0.8,0,1.2
	C80.5,90,81.5,90,82.4,90z"/>
<path class="st1" d="M102.2,82.4c0.1,4.4-3.2,7.2-6.1,7.9c-2.5,0.5-4.8,0.2-6.9-1.3c-1.7-1.2-2.8-2.8-3.2-4.9
	c-0.9-4.6,1.8-7.9,4.8-9.2c1.3-0.6,2.7-0.7,4.2-0.5c2.9,0.3,5,1.9,6.4,4.5C102,80,102.2,81.2,102.2,82.4z M88.8,82.4
	c-0.1,2.8,2.3,5.3,5.2,5.3s5.3-2.4,5.3-5.3s-2.4-5.3-5.3-5.3C91,77.1,88.7,79.6,88.8,82.4z"/>
<path class="st1" d="M28.5,82.4c0.1-3.4,1.7-5.9,4.7-7.4c1.1-0.6,2.4-0.7,3.7-0.7c3.3,0.1,6.2,2,7.4,5c0.5,1.2,0.6,2.5,0.5,3.9
	c-0.3,3.6-2.9,5.9-5.1,6.7c-1.3,0.5-2.6,0.6-4,0.5c-2.6-0.3-4.6-1.6-6-3.8C28.9,85.3,28.5,83.9,28.5,82.4z M42,82.4
	c0.1-2.8-2.3-5.3-5.2-5.3c-3,0-5.3,2.4-5.3,5.2c0,3,2.4,5.3,5.2,5.4C39.6,87.7,42,85.2,42,82.4z"/>
<path class="st1" d="M16.7,90c0-5.1,0-10.3,0-15.4c0.1,0,0.2,0,0.2,0c1.4,0,2.8,0,4.2,0c0.9,0,1.8,0.1,2.6,0.4
	c1.8,0.6,2.9,2.1,3,4.1c0,0.8,0,1.7-0.4,2.4c-0.7,1.6-1.8,2.6-3.5,2.8h-0.1c0,0,0,0-0.1,0.1c1.4,1.9,2.8,3.7,4.2,5.6
	c-0.1,0-0.2,0-0.3,0c-1,0-2,0-2.9,0c-0.2,0-0.3-0.1-0.4-0.2c-1.2-1.7-2.4-3.4-3.5-5.1c-0.1-0.1-0.1-0.2-0.2-0.2c0,0.3,0,0.6,0,0.9
	s0,0.6,0,0.9s0,0.6,0,0.9s0,0.6,0,0.9s0,0.6,0,0.9s0,0.6,0,0.9C18.6,90,17.7,90,16.7,90z M19.6,81.9L19.6,81.9c0.7,0,1.4,0,2,0
	c0.4,0,0.9-0.1,1.3-0.3c0.5-0.3,0.9-0.7,1-1.3c0-0.2,0.1-0.5,0.1-0.7c0-0.8-0.3-1.5-1.1-1.9c-0.3-0.2-0.6-0.3-1-0.3
	c-0.7,0-1.5,0-2.2,0c0,0,0,0-0.1,0C19.6,78.9,19.6,80.4,19.6,81.9z"/>
<path class="st1" d="M107.7,90c-1,0-1.9,0-2.8,0c-0.1-0.2-0.1-15.1,0-15.4c0.1,0,0.1,0,0.2,0c1.4,0,2.8,0,4.2,0
	c0.9,0,1.8,0.1,2.7,0.4c1.8,0.6,2.9,2.1,3,4c0.1,0.9,0,1.8-0.4,2.6c-0.7,1.5-1.8,2.4-3.5,2.7H111c0,0,0,0-0.1,0.1
	c1.4,1.9,2.8,3.7,4.2,5.6c-0.1,0-0.2,0-0.3,0c-1,0-2,0-2.9,0c-0.2,0-0.3-0.1-0.4-0.2c-1.2-1.7-2.4-3.4-3.5-5.1
	c-0.1-0.1-0.1-0.2-0.2-0.3c0,0,0,0-0.1,0C107.7,86.4,107.7,88.2,107.7,90z M107.7,81.9C107.8,81.9,107.8,81.9,107.7,81.9
	c0.7,0,1.4,0,2,0c0.5,0,0.9-0.1,1.3-0.4c0.5-0.3,0.8-0.6,0.9-1.2c0-0.2,0.1-0.4,0.1-0.6c0-1.3-0.5-2.1-1.8-2.4l0,0
	c-0.8-0.2-1.7-0.1-2.5-0.1c0,0,0,0-0.1,0C107.7,78.9,107.7,80.4,107.7,81.9z"/>
<path class="st1" d="M47.9,90c-1.1,0-2.1,0-3.1,0c0-0.2,5.9-14.7,6.3-15.4c0.8,0,1.5,0,2.3,0c2.1,5.1,4.2,10.3,6.4,15.4
	c-1.1,0-2.1,0-3.2,0c-0.5-1.3-1-2.6-1.5-4c-1.9,0-3.7,0-5.7,0C49,87.4,48.5,88.7,47.9,90z M52.3,78.8L52.3,78.8
	c-0.6,1.5-1.2,2.9-1.8,4.4c1.2,0,2.3,0,3.5,0C53.5,81.8,52.9,80.3,52.3,78.8z"/>
<path class="st1" d="M75.6,85.9c0,0.1,0,0.1-0.1,0.2c-1.1,2.1-2.7,3.6-5.1,4.2c-4.4,1-7.9-1.2-9.4-4.6c-0.5-1.3-0.7-2.6-0.6-3.9
	c0.2-2.9,1.7-5,4.3-6.4c1.2-0.7,2.5-0.9,3.9-0.9c3.1,0.1,5.4,1.6,6.9,4.4c0,0.1,0.1,0.2,0.1,0.3c-0.1,0-0.2,0-0.3,0
	c-0.9,0-1.8,0-2.7,0c-0.2,0-0.3-0.1-0.4-0.2c-0.8-0.9-1.8-1.5-3-1.7c-1.6-0.2-3,0.2-4.2,1.3c-2.5,2.3-2.3,6.3,0.4,8.3
	c0.8,0.6,1.8,0.9,2.8,1c0.6,0,1.1,0,1.7-0.2c0.8-0.3,1.6-0.7,2.1-1.4c0.1-0.1,0.2-0.2,0.4-0.2c0.9,0,1.8,0,2.8,0
	C75.4,85.9,75.4,85.9,75.6,85.9z"/>
<path class="st1" d="M7.4,84.2c0,2,0,3.9,0,5.8c-1,0-1.9,0-2.8,0c-0.1-0.2-0.1-15,0-15.4c0.1,0,0.1,0,0.2,0c1.3,0,2.6,0,4,0
	c0.9,0,1.7,0.1,2.5,0.4c1.8,0.7,2.8,2,3,3.9c0.1,0.7,0,1.5-0.2,2.2c-0.5,1.6-1.7,2.6-3.3,3c-0.6,0.1-1.3,0.2-1.9,0.2
	c-0.3,0-0.7,0-1,0C7.6,84.2,7.5,84.2,7.4,84.2z M7.4,81.4c0.7,0,1.4,0,2.1,0c0.2,0,0.5-0.1,0.7-0.2c0.6-0.2,0.9-0.6,1.1-1.2
	c0.1-0.3,0.1-0.6,0.1-0.9c0-0.7-0.4-1.3-1.1-1.6c-0.2-0.1-0.4-0.2-0.6-0.2c-0.7,0-1.5,0-2.2,0c0,0,0,0-0.1,0
	C7.4,78.7,7.4,80.1,7.4,81.4z"/>
<path class="st1" d="M82.4,90c-1,0-1.9,0-2.9,0c0-0.4,0-0.8,0-1.2c0-0.4,0-0.8,0-1.3c0-0.4,0-0.9,0-1.3s0-0.8,0-1.3s0-0.8,0-1.3
	s0-0.8,0-1.3c0-0.4,0-0.8,0-1.3c0-0.4,0-0.9,0-1.3s0-0.8,0-1.3c0-0.4,0-0.8,0-1.3c-1,0-1.9,0-2.8,0c0-0.9,0-1.8,0-2.7
	c2.8,0,5.7,0,8.5,0c0,0.9,0,1.8,0,2.7c-0.3,0-0.6,0-0.9,0s-0.6,0-1,0c-0.3,0-0.6,0-0.9,0C82.4,81.6,82.4,85.8,82.4,90z"/>
<path class="st0" d="M14.2,60.5c-0.1-0.1,0-0.2,0.1-0.3c0.4-0.3,0.9-0.7,1.3-1c0.6-0.5,1.2-1,1.8-1.5c0.4-0.3,0.8-0.7,1.3-1
	c0.9-0.7,1.8-1.5,2.7-2.2c0.4-0.3,0.7-0.6,1.1-0.9c1.1-0.9,2.1-1.7,3.2-2.6c1.4-1.1,2.7-2.2,4.1-3.3s2.7-2.2,4.1-3.3
	c2.8-2.3,5.5-4.5,8.3-6.8c7.4-6.1,14.8-12.1,22.1-18.2c0.1-0.1,0.2-0.2,0.4-0.2c0.1,0,0.2-0.1,0.2-0.1c0.6-0.5,1.3-0.9,1.9-1.4
	c0.4-0.3,0.8-0.6,1.3-0.8c0.2-0.1,0.3-0.2,0.5-0.3c2.8-1.4,5.6-2.7,8.7-3.1c1.9-0.3,3.9-0.4,5.8-0.2c4.8,0.4,9.2,2.2,12.9,5.3
	c4.3,3.5,7,8,8.1,13.4c0.5,2.2,0.6,4.4,0.5,6.6c-0.7,10.3-8.1,18.9-18.2,21.3c-1.3,0.3-2.6,0.5-3.9,0.6c-0.6,0-1.2,0.1-1.7,0.1
	c-20.9,0-41.9,0-62.8,0c-1,0-2,0-3,0c-0.2,0-0.4,0-0.6,0C14.3,60.5,14.3,60.5,14.2,60.5z"/>
<path class="st0" d="M88.8,82.4c-0.1-2.7,2.2-5.3,5.3-5.3c2.8,0,5.3,2.3,5.3,5.3c0,2.9-2.4,5.3-5.3,5.3
	C91.1,87.7,88.7,85.2,88.8,82.4z"/>
<path class="st0" d="M42,82.4c0.1,2.8-2.3,5.4-5.4,5.3c-2.8,0-5.2-2.4-5.2-5.4c0-2.9,2.4-5.3,5.3-5.2C39.6,77.1,42,79.5,42,82.4z"/>
<path class="st0" d="M19.6,81.9c0-1.5,0-3,0-4.5h0.1c0.7,0,1.5,0,2.2,0c0.4,0,0.7,0.1,1,0.3c0.8,0.4,1.1,1.1,1.1,1.9
	c0,0.2,0,0.5-0.1,0.7c-0.1,0.6-0.5,1-1,1.3c-0.4,0.2-0.8,0.3-1.3,0.3C21,81.9,20.3,81.9,19.6,81.9C19.7,82,19.6,82,19.6,81.9z"/>
<path class="st0" d="M107.7,81.9c0-1.5,0-3,0-4.5c0,0,0,0,0.1,0c0.8,0,1.7-0.1,2.5,0.1l0,0c1.3,0.3,1.8,1.1,1.8,2.4
	c0,0.2,0,0.4-0.1,0.6c-0.1,0.5-0.4,0.9-0.9,1.2c-0.4,0.2-0.9,0.4-1.3,0.4c-0.6,0-1.3,0-1.9,0C107.8,82,107.7,82,107.7,81.9z"/>
<path class="st0" d="M52.3,78.8c0.6,1.5,1.1,2.9,1.7,4.4c-1.2,0-2.3,0-3.5,0C51.1,81.8,51.7,80.3,52.3,78.8L52.3,78.8z"/>
<path class="st0" d="M7.4,81.4c0-1.4,0-2.7,0-4h0.1c0.7,0,1.5,0,2.2,0c0.2,0,0.4,0.1,0.6,0.2c0.7,0.3,1,0.9,1.1,1.6
	c0,0.3,0,0.6-0.1,0.9c-0.1,0.6-0.5,1-1.1,1.2c-0.2,0.1-0.5,0.2-0.7,0.2C8.8,81.4,8.1,81.4,7.4,81.4z"/>
<path class="st1" d="M115.5,4.1H4.6v66.4h110.9C115.6,70.1,115.6,4.3,115.5,4.1z M64.7,19.2l-0.3,0.1C64.5,19.2,64.5,19.2,64.7,19.2
	z M104.6,38.5c-0.7,10.3-8.1,18.9-18.2,21.3c-1.3,0.3-2.6,0.5-3.9,0.6c-0.6,0-1.2,0.1-1.7,0.1c-20.9,0-41.9,0-62.8,0c-1,0-2,0-3,0
	c-0.2,0-0.4,0-0.6,0c-0.1,0-0.2,0-0.2,0l0,0l50.6-41.3l0.1-0.1c0.6-0.5,1.3-0.9,1.9-1.4c0.4-0.3,0.8-0.6,1.3-0.8
	c0.2-0.1,0.3-0.2,0.5-0.3c2.8-1.4,5.6-2.7,8.7-3.1c1.9-0.3,3.9-0.4,5.8-0.2c4.8,0.4,9.2,2.2,12.9,5.3c4.3,3.5,7,8,8.1,13.4
	C104.6,34.1,104.7,36.3,104.6,38.5z"/>
<path class="st1" d="M104.6,38.5c-0.7,10.3-8.1,18.9-18.2,21.3c-1.3,0.3-2.6,0.5-3.9,0.6c-0.6,0-1.2,0.1-1.7,0.1
	c-20.9,0-41.9,0-62.8,0c-1,0-2,0-3,0c-0.2,0-0.4,0-0.6,0c-0.1,0-0.2,0-0.2,0l0,0l50.6-41.3l0.1-0.1c0.6-0.5,1.3-0.9,1.9-1.4
	c0.4-0.3,0.8-0.6,1.3-0.8c0.2-0.1,0.3-0.2,0.5-0.3c2.8-1.4,5.6-2.7,8.7-3.1c1.9-0.3,3.9-0.4,5.8-0.2c4.8,0.4,9.2,2.2,12.9,5.3
	c4.3,3.5,7,8,8.1,13.4C104.6,34.1,104.7,36.3,104.6,38.5z"/>
<path class="st0" d="M104.6,38.5c-0.7,10.3-8.1,18.9-18.2,21.3c-1.3,0.3-2.6,0.5-3.9,0.6c-0.6,0-68.4,0.1-68.4,0.1l50.7-41.4
	c0.6-0.5,1.3-0.9,1.9-1.4c0.4-0.3,0.8-0.6,1.3-0.8c0.2-0.1,0.3-0.2,0.5-0.3c2.8-1.4,5.6-2.7,8.7-3.1c1.9-0.3,3.9-0.4,5.8-0.2
	c4.8,0.4,9.2,2.2,12.9,5.3c4.3,3.5,7,8,8.1,13.4C104.6,34.1,104.7,36.3,104.6,38.5z"/>
</svg>
