<?xml version="1.0" encoding="utf-8"?>
<!-- Generator: Adobe Illustrator 23.0.1, SVG Export Plug-In . SVG Version: 6.00 Build 0)  -->
<svg version="1.1" id="Слой_1" xmlns="http://www.w3.org/2000/svg" xmlns:xlink="http://www.w3.org/1999/xlink" x="0px" y="0px"
	 viewBox="0 0 120 119.9" style="enable-background:new 0 0 120 119.9;" xml:space="preserve">
<style type="text/css">
	.st0{fill:#FFFFFF;}
</style>
<g>
	<path class="st0" d="M0,12.8c40,0,80,0,120,0c0,31.7,0,63.4,0,95c-40,0-80,0-120,0C0,76.2,0,44.5,0,12.8z M4.6,83.3
		c37,0,74,0,110.9,0c0.1-0.3,0-66.2,0-66.4c-37,0-73.9,0-110.9,0C4.6,39,4.6,61.1,4.6,83.3z M102.2,95.2c0-1.2-0.2-2.4-0.8-3.5
		c-1.3-2.6-3.4-4.1-6.4-4.5c-1.4-0.2-2.8,0-4.2,0.5c-3,1.3-5.7,4.6-4.8,9.2c0.4,2,1.5,3.6,3.2,4.9c2.1,1.5,4.4,1.8,6.9,1.3
		C99,102.4,102.3,99.5,102.2,95.2z M28.5,95.2c0,1.5,0.3,2.9,1.1,4.2c1.4,2.2,3.4,3.5,6,3.8c1.4,0.2,2.7,0,4-0.5
		c2.2-0.8,4.8-3.1,5.1-6.7c0.1-1.3,0-2.6-0.5-3.9c-1.2-3-4.1-5-7.4-5c-1.3,0-2.5,0.1-3.7,0.7C30.2,89.4,28.6,91.8,28.5,95.2z
		 M16.7,102.8c1,0,1.9,0,2.8,0c0-0.3,0-0.6,0-0.9s0-0.6,0-0.9s0-0.6,0-0.9s0-0.6,0-0.9s0-0.6,0-0.9s0-0.6,0-0.9
		c0.1,0.1,0.2,0.2,0.2,0.2c1.2,1.7,2.4,3.4,3.5,5.1c0.1,0.2,0.2,0.2,0.4,0.2c1,0,2,0,2.9,0c0.1,0,0.2,0,0.3,0
		c-1.4-1.9-2.8-3.8-4.2-5.6c0,0,0.1,0,0.1-0.1h0.1c1.7-0.2,2.9-1.3,3.5-2.8c0.3-0.8,0.4-1.6,0.4-2.4c-0.1-1.9-1.2-3.4-3-4.1
		c-0.8-0.3-1.7-0.4-2.6-0.4c-1.4,0-2.8,0-4.2,0c-0.1,0-0.2,0-0.2,0C16.7,92.6,16.7,97.7,16.7,102.8z M107.7,102.8c0-1.8,0-3.7,0-5.5
		c0,0,0,0,0.1,0c0.1,0.1,0.1,0.2,0.2,0.3c1.2,1.7,2.4,3.4,3.5,5.1c0.1,0.2,0.2,0.2,0.4,0.2c1,0,2,0,2.9,0c0.1,0,0.1,0,0.3,0
		c-1.4-1.9-2.8-3.8-4.2-5.6c0,0,0,0,0.1-0.1h0.1c1.7-0.2,2.8-1.2,3.5-2.7c0.4-0.8,0.5-1.7,0.4-2.6c-0.1-1.9-1.2-3.4-3-4
		c-0.9-0.3-1.8-0.4-2.7-0.4c-1.4,0-2.8,0-4.2,0c-0.1,0-0.2,0-0.2,0c-0.1,0.3,0,15.2,0,15.4C105.8,102.8,106.7,102.8,107.7,102.8z
		 M47.9,102.8c0.5-1.3,1-2.7,1.5-4c1.9,0,3.8,0,5.7,0c0.5,1.3,1,2.6,1.5,4c1.1,0,2.1,0,3.2,0c-2.1-5.2-4.2-10.3-6.4-15.4
		c-0.8,0-1.6,0-2.3,0c-0.4,0.8-6.3,15.2-6.3,15.4C45.9,102.8,46.9,102.8,47.9,102.8z M75.6,98.7c-0.1,0-0.2,0-0.3,0
		c-0.9,0-1.8,0-2.8,0c-0.2,0-0.3,0.1-0.4,0.2c-0.6,0.7-1.3,1.1-2.1,1.4c-0.6,0.2-1.1,0.2-1.7,0.2c-1.1,0-2-0.3-2.8-1
		c-2.7-2.1-2.9-6-0.4-8.3c1.2-1.1,2.6-1.4,4.2-1.3c1.2,0.2,2.2,0.8,3,1.7c0.1,0.1,0.2,0.2,0.4,0.2c0.9,0,1.8,0,2.7,0
		c0.1,0,0.2,0,0.3,0c-0.1-0.1-0.1-0.2-0.1-0.3c-1.4-2.8-3.7-4.3-6.9-4.4c-1.4,0-2.7,0.2-3.9,0.9c-2.5,1.4-4,3.5-4.3,6.4
		c-0.1,1.4,0.1,2.7,0.6,3.9c1.5,3.4,5,5.6,9.4,4.6C72.9,102.4,74.5,100.9,75.6,98.7C75.5,98.8,75.5,98.8,75.6,98.7z M7.4,97
		c0.1,0,0.2,0,0.3,0c0.3,0,0.7,0,1,0c0.6,0,1.3,0,1.9-0.2c1.6-0.4,2.8-1.3,3.3-3c0.2-0.7,0.3-1.4,0.2-2.2c-0.2-1.9-1.2-3.2-3-3.9
		c-0.8-0.3-1.7-0.4-2.5-0.4c-1.3,0-2.6,0-4,0c-0.1,0-0.2,0-0.2,0c-0.1,0.4,0,15.2,0,15.4c0.9,0,1.8,0,2.8,0C7.4,100.9,7.4,99,7.4,97
		z M82.4,102.8c0-4.2,0-8.4,0-12.7c0.3,0,0.6,0,0.9,0s0.6,0,1,0c0.3,0,0.6,0,0.9,0c0-0.9,0-1.8,0-2.7c-2.9,0-5.7,0-8.5,0
		c0,0.9,0,1.8,0,2.7c0.9,0,1.9,0,2.8,0c0,0.5,0,0.9,0,1.3s0,0.8,0,1.3c0,0.4,0,0.9,0,1.3s0,0.8,0,1.3c0,0.4,0,0.8,0,1.3s0,0.8,0,1.3
		s0,0.8,0,1.3c0,0.4,0,0.9,0,1.3s0,0.8,0,1.3c0,0.4,0,0.8,0,1.2C80.5,102.8,81.5,102.8,82.4,102.8z"/>
	<path d="M102.2,95.2c0.1,4.4-3.2,7.2-6.1,7.9c-2.5,0.5-4.8,0.2-6.9-1.3c-1.7-1.2-2.8-2.8-3.2-4.9c-0.9-4.6,1.8-7.9,4.8-9.2
		c1.3-0.6,2.7-0.7,4.2-0.5c2.9,0.3,5,1.9,6.4,4.5C102,92.8,102.2,94,102.2,95.2z M88.8,95.2c-0.1,2.8,2.3,5.3,5.2,5.3
		c2.9,0,5.3-2.4,5.3-5.3s-2.4-5.3-5.3-5.3C91,89.9,88.7,92.4,88.8,95.2z"/>
	<path d="M28.5,95.2c0.1-3.4,1.7-5.9,4.7-7.4c1.1-0.6,2.4-0.7,3.7-0.7c3.3,0.1,6.2,2,7.4,5c0.5,1.2,0.6,2.5,0.5,3.9
		c-0.3,3.6-2.9,5.9-5.1,6.7c-1.3,0.5-2.6,0.6-4,0.5c-2.6-0.3-4.6-1.6-6-3.8C28.9,98.1,28.5,96.7,28.5,95.2z M42,95.2
		c0.1-2.8-2.3-5.3-5.2-5.3c-3,0-5.3,2.4-5.3,5.2c0,3,2.4,5.3,5.2,5.4C39.6,100.5,42,98,42,95.2z"/>
	<path d="M16.7,102.8c0-5.1,0-10.3,0-15.4c0.1,0,0.2,0,0.2,0c1.4,0,2.8,0,4.2,0c0.9,0,1.8,0.1,2.6,0.4c1.8,0.6,2.9,2.1,3,4.1
		c0,0.8,0,1.7-0.4,2.4c-0.7,1.6-1.8,2.6-3.5,2.8h-0.1c0,0,0,0-0.1,0.1c1.4,1.9,2.8,3.7,4.2,5.6c-0.1,0-0.2,0-0.3,0c-1,0-2,0-2.9,0
		c-0.2,0-0.3-0.1-0.4-0.2c-1.2-1.7-2.4-3.4-3.5-5.1c-0.1-0.1-0.1-0.2-0.2-0.2c0,0.3,0,0.6,0,0.9s0,0.6,0,0.9s0,0.6,0,0.9
		s0,0.6,0,0.9s0,0.6,0,0.9s0,0.6,0,0.9C18.6,102.8,17.7,102.8,16.7,102.8z M19.6,94.7h0.1c0.6,0,1.3,0,1.9,0c0.4,0,0.9-0.1,1.3-0.3
		c0.5-0.3,0.9-0.7,1-1.3c0-0.2,0.1-0.5,0.1-0.7c0-0.8-0.3-1.5-1.1-1.9c-0.3-0.2-0.6-0.3-1-0.3c-0.7,0-1.5,0-2.2,0c0,0,0,0-0.1,0
		C19.6,91.7,19.6,93.2,19.6,94.7z"/>
	<path d="M107.7,102.8c-1,0-1.9,0-2.8,0c-0.1-0.2-0.1-15.1,0-15.4c0.1,0,0.1,0,0.2,0c1.4,0,2.8,0,4.2,0c0.9,0,1.8,0.1,2.7,0.4
		c1.8,0.6,2.9,2.1,3,4c0.1,0.9,0,1.8-0.4,2.6c-0.7,1.5-1.8,2.4-3.5,2.7H111c0,0,0,0-0.1,0.1c1.4,1.9,2.8,3.7,4.2,5.6
		c-0.1,0-0.2,0-0.3,0c-1,0-2,0-2.9,0c-0.2,0-0.3-0.1-0.4-0.2c-1.2-1.7-2.4-3.4-3.5-5.1c-0.1-0.1-0.1-0.2-0.2-0.3c0,0,0,0-0.1,0
		C107.7,99.2,107.7,101,107.7,102.8z M107.7,94.7C107.8,94.7,107.8,94.7,107.7,94.7c0.7,0,1.4,0,2,0c0.5,0,0.9-0.1,1.3-0.4
		c0.5-0.3,0.8-0.6,0.9-1.2c0-0.2,0.1-0.4,0.1-0.6c0-1.3-0.5-2.1-1.8-2.4l0,0c-0.8-0.2-1.7-0.1-2.5-0.1c0,0,0,0-0.1,0
		C107.7,91.7,107.7,93.2,107.7,94.7z"/>
	<path d="M47.9,102.8c-1.1,0-2.1,0-3.1,0c0-0.2,5.9-14.7,6.3-15.4c0.8,0,1.5,0,2.3,0c2.1,5.1,4.2,10.3,6.4,15.4c-1.1,0-2.1,0-3.2,0
		c-0.5-1.3-1-2.6-1.5-4c-1.9,0-3.7,0-5.7,0C49,100.2,48.5,101.5,47.9,102.8z M52.3,91.6L52.3,91.6c-0.6,1.5-1.2,2.9-1.8,4.4
		c1.2,0,2.3,0,3.5,0C53.5,94.6,52.9,93.1,52.3,91.6z"/>
	<path d="M75.6,98.7c0,0.1,0,0.1-0.1,0.2c-1.1,2.1-2.7,3.6-5.1,4.2c-4.4,1-7.9-1.2-9.4-4.6c-0.5-1.3-0.7-2.6-0.6-3.9
		c0.2-2.9,1.7-5,4.3-6.4c1.2-0.7,2.5-0.9,3.9-0.9c3.1,0.1,5.4,1.6,6.9,4.4c0,0.1,0.1,0.2,0.1,0.3c-0.1,0-0.2,0-0.3,0
		c-0.9,0-1.8,0-2.7,0c-0.2,0-0.3-0.1-0.4-0.2c-0.8-0.9-1.8-1.5-3-1.7c-1.6-0.2-3,0.2-4.2,1.3c-2.5,2.3-2.3,6.3,0.4,8.3
		c0.8,0.6,1.8,0.9,2.8,1c0.6,0,1.1,0,1.7-0.2c0.8-0.3,1.6-0.7,2.1-1.4c0.1-0.1,0.2-0.2,0.4-0.2c0.9,0,1.8,0,2.8,0
		C75.4,98.7,75.4,98.7,75.6,98.7z"/>
	<path d="M7.4,97c0,2,0,3.9,0,5.8c-1,0-1.9,0-2.8,0c-0.1-0.2-0.1-15,0-15.4c0.1,0,0.1,0,0.2,0c1.3,0,2.6,0,4,0
		c0.9,0,1.7,0.1,2.5,0.4c1.8,0.7,2.8,2,3,3.9c0.1,0.7,0,1.5-0.2,2.2c-0.5,1.6-1.7,2.6-3.3,3c-0.6,0.1-1.3,0.2-1.9,0.2
		c-0.3,0-0.7,0-1,0C7.6,97,7.5,97,7.4,97z M7.4,94.2c0.7,0,1.4,0,2.1,0c0.2,0,0.5-0.1,0.7-0.2c0.6-0.2,0.9-0.6,1.1-1.2
		c0.1-0.3,0.1-0.6,0.1-0.9c0-0.7-0.4-1.3-1.1-1.6c-0.2-0.1-0.4-0.2-0.6-0.2c-0.7,0-1.5,0-2.2,0c0,0,0,0-0.1,0
		C7.4,91.5,7.4,92.9,7.4,94.2z"/>
	<path d="M82.4,102.8c-1,0-1.9,0-2.9,0c0-0.4,0-0.8,0-1.2c0-0.4,0-0.8,0-1.3c0-0.4,0-0.9,0-1.3s0-0.8,0-1.3s0-0.8,0-1.3s0-0.8,0-1.3
		c0-0.4,0-0.8,0-1.3c0-0.4,0-0.9,0-1.3s0-0.8,0-1.3c0-0.4,0-0.8,0-1.3c-1,0-1.9,0-2.8,0c0-0.9,0-1.8,0-2.7c2.8,0,5.7,0,8.5,0
		c0,0.9,0,1.8,0,2.7c-0.3,0-0.6,0-0.9,0s-0.6,0-1,0c-0.3,0-0.6,0-0.9,0C82.4,94.4,82.4,98.6,82.4,102.8z"/>
	<path class="st0" d="M14.2,73.3c-0.1-0.1,0-0.2,0.1-0.3c0.4-0.3,0.9-0.7,1.3-1c0.6-0.5,1.2-1,1.8-1.5c0.4-0.3,0.8-0.7,1.3-1
		c0.9-0.7,1.8-1.5,2.7-2.2c0.4-0.3,0.7-0.6,1.1-0.9c1.1-0.9,2.1-1.7,3.2-2.6c1.4-1.1,2.7-2.2,4.1-3.3s2.7-2.2,4.1-3.3
		c2.8-2.3,5.5-4.5,8.3-6.8c7.4-6.1,14.8-12.1,22.1-18.2c0.1-0.1,0.2-0.2,0.4-0.2c0.1,0,0.2-0.1,0.2-0.1c0.6-0.5,1.3-0.9,1.9-1.4
		c0.4-0.3,0.8-0.6,1.3-0.8c0.2-0.1,0.3-0.2,0.5-0.3c2.8-1.4,5.6-2.7,8.7-3.1c1.9-0.3,3.9-0.4,5.8-0.2c4.8,0.4,9.2,2.2,12.9,5.3
		c4.3,3.5,7,8,8.1,13.4c0.5,2.2,0.6,4.4,0.5,6.6c-0.7,10.3-8.1,18.9-18.2,21.3c-1.3,0.3-2.6,0.5-3.9,0.6c-0.6,0-1.2,0.1-1.7,0.1
		c-20.9,0-41.9,0-62.8,0c-1,0-2,0-3,0c-0.2,0-0.4,0-0.6,0C14.3,73.3,14.3,73.3,14.2,73.3z"/>
	<path class="st0" d="M88.8,95.2c-0.1-2.7,2.2-5.3,5.3-5.3c2.8,0,5.3,2.3,5.3,5.3c0,2.9-2.4,5.3-5.3,5.3
		C91.1,100.5,88.7,98,88.8,95.2z"/>
	<path class="st0" d="M42,95.2c0.1,2.8-2.3,5.4-5.4,5.3c-2.8,0-5.2-2.4-5.2-5.4c0-2.9,2.4-5.3,5.3-5.2C39.6,89.9,42,92.3,42,95.2z"
		/>
	<path class="st0" d="M19.6,94.7c0-1.5,0-3,0-4.5h0.1c0.7,0,1.5,0,2.2,0c0.4,0,0.7,0.1,1,0.3c0.8,0.4,1.1,1.1,1.1,1.9
		c0,0.2,0,0.5-0.1,0.7c-0.1,0.6-0.5,1-1,1.3c-0.4,0.2-0.8,0.3-1.3,0.3c-0.6,0-1.3,0-1.9,0C19.7,94.8,19.6,94.8,19.6,94.7z"/>
	<path class="st0" d="M107.7,94.7c0-1.5,0-3,0-4.5c0,0,0,0,0.1,0c0.8,0,1.7-0.1,2.5,0.1l0,0c1.3,0.3,1.8,1.1,1.8,2.4
		c0,0.2,0,0.4-0.1,0.6c-0.1,0.5-0.4,0.9-0.9,1.2c-0.4,0.2-0.9,0.4-1.3,0.4c-0.6,0-1.3,0-1.9,0C107.8,94.8,107.7,94.8,107.7,94.7z"/>
	<path class="st0" d="M52.3,91.6c0.6,1.5,1.1,2.9,1.7,4.4c-1.2,0-2.3,0-3.5,0C51.1,94.6,51.7,93.1,52.3,91.6L52.3,91.6z"/>
	<path class="st0" d="M7.4,94.2c0-1.4,0-2.7,0-4h0.1c0.7,0,1.5,0,2.2,0c0.2,0,0.4,0.1,0.6,0.2c0.7,0.3,1,0.9,1.1,1.6
		c0,0.3,0,0.6-0.1,0.9c-0.1,0.6-0.5,1-1.1,1.2c-0.2,0.1-0.5,0.2-0.7,0.2C8.8,94.2,8.1,94.2,7.4,94.2z"/>
</g>
<path d="M115.5,16.9H4.6v66.4h110.9C115.6,82.9,115.6,17.1,115.5,16.9z M64.7,32l-0.3,0.1C64.5,32,64.5,32,64.7,32z M104.6,51.3
	c-0.7,10.3-8.1,18.9-18.2,21.3c-1.3,0.3-2.6,0.5-3.9,0.6c-0.6,0-1.2,0.1-1.7,0.1c-20.9,0-41.9,0-62.8,0c-1,0-2,0-3,0
	c-0.2,0-0.4,0-0.6,0c-0.1,0-0.2,0-0.2,0l0,0L64.8,32l0.1-0.1c0.6-0.5,1.3-0.9,1.9-1.4c0.4-0.3,0.8-0.6,1.3-0.8
	c0.2-0.1,0.3-0.2,0.5-0.3c2.8-1.4,5.6-2.7,8.7-3.1c1.9-0.3,3.9-0.4,5.8-0.2c4.8,0.4,9.2,2.2,12.9,5.3c4.3,3.5,7,8,8.1,13.4
	C104.6,46.9,104.7,49.1,104.6,51.3z"/>
<path d="M104.6,51.3c-0.7,10.3-8.1,18.9-18.2,21.3c-1.3,0.3-2.6,0.5-3.9,0.6c-0.6,0-1.2,0.1-1.7,0.1c-20.9,0-41.9,0-62.8,0
	c-1,0-2,0-3,0c-0.2,0-0.4,0-0.6,0c-0.1,0-0.2,0-0.2,0l0,0L64.8,32l0.1-0.1c0.6-0.5,1.3-0.9,1.9-1.4c0.4-0.3,0.8-0.6,1.3-0.8
	c0.2-0.1,0.3-0.2,0.5-0.3c2.8-1.4,5.6-2.7,8.7-3.1c1.9-0.3,3.9-0.4,5.8-0.2c4.8,0.4,9.2,2.2,12.9,5.3c4.3,3.5,7,8,8.1,13.4
	C104.6,46.9,104.7,49.1,104.6,51.3z"/>
<path class="st0" d="M104.6,51.3c-0.7,10.3-8.1,18.9-18.2,21.3c-1.3,0.3-2.6,0.5-3.9,0.6c-0.6,0-68.4,0.1-68.4,0.1l50.7-41.4
	c0.6-0.5,1.3-0.9,1.9-1.4c0.4-0.3,0.8-0.6,1.3-0.8c0.2-0.1,0.3-0.2,0.5-0.3c2.8-1.4,5.6-2.7,8.7-3.1c1.9-0.3,3.9-0.4,5.8-0.2
	c4.8,0.4,9.2,2.2,12.9,5.3c4.3,3.5,7,8,8.1,13.4C104.6,46.9,104.7,49.1,104.6,51.3z"/>
<g>
	<path class="st0" d="M-124,12.8c40,0,80,0,120,0c0,31.7,0,63.4,0,95c-40,0-80,0-120,0C-124,76.2-124,44.5-124,12.8z M-119.4,83.3
		c37,0,74,0,110.9,0c0.1-0.3,0-66.2,0-66.4c-37,0-73.9,0-110.9,0C-119.4,39-119.4,61.1-119.4,83.3z M-21.8,95.2
		c0-1.2-0.2-2.4-0.8-3.5c-1.3-2.6-3.4-4.1-6.4-4.5c-1.4-0.2-2.8,0-4.2,0.5c-3,1.3-5.7,4.6-4.8,9.2c0.4,2,1.5,3.6,3.2,4.9
		c2.1,1.5,4.4,1.8,6.9,1.3C-25,102.4-21.7,99.5-21.8,95.2z M-95.5,95.2c0,1.5,0.3,2.9,1.1,4.2c1.4,2.2,3.4,3.5,6,3.8
		c1.4,0.2,2.7,0,4-0.5c2.2-0.8,4.8-3.1,5.1-6.7c0.1-1.3,0-2.6-0.5-3.9c-1.2-3-4.1-5-7.4-5c-1.3,0-2.5,0.1-3.7,0.7
		C-93.8,89.4-95.4,91.8-95.5,95.2z M-107.3,102.8c1,0,1.9,0,2.8,0c0-0.3,0-0.6,0-0.9s0-0.6,0-0.9s0-0.6,0-0.9s0-0.6,0-0.9
		s0-0.6,0-0.9s0-0.6,0-0.9c0.1,0.1,0.2,0.2,0.2,0.2c1.2,1.7,2.4,3.4,3.5,5.1c0.1,0.2,0.2,0.2,0.4,0.2c1,0,2,0,2.9,0
		c0.1,0,0.2,0,0.3,0c-1.4-1.9-2.8-3.8-4.2-5.6c0,0,0.1,0,0.1-0.1h0.1c1.7-0.2,2.9-1.3,3.5-2.8c0.3-0.8,0.4-1.6,0.4-2.4
		c-0.1-1.9-1.2-3.4-3-4.1c-0.8-0.3-1.7-0.4-2.6-0.4c-1.4,0-2.8,0-4.2,0c-0.1,0-0.2,0-0.2,0C-107.3,92.6-107.3,97.7-107.3,102.8z
		 M-16.3,102.8c0-1.8,0-3.7,0-5.5c0,0,0,0,0.1,0c0.1,0.1,0.1,0.2,0.2,0.3c1.2,1.7,2.4,3.4,3.5,5.1c0.1,0.2,0.2,0.2,0.4,0.2
		c1,0,2,0,2.9,0c0.1,0,0.1,0,0.3,0c-1.4-1.9-2.8-3.8-4.2-5.6c0,0,0,0,0.1-0.1h0.1c1.7-0.2,2.8-1.2,3.5-2.7c0.4-0.8,0.5-1.7,0.4-2.6
		c-0.1-1.9-1.2-3.4-3-4c-0.9-0.3-1.8-0.4-2.7-0.4c-1.4,0-2.8,0-4.2,0c-0.1,0-0.2,0-0.2,0c-0.1,0.3,0,15.2,0,15.4
		C-18.2,102.8-17.3,102.8-16.3,102.8z M-76.1,102.8c0.5-1.3,1-2.7,1.5-4c1.9,0,3.8,0,5.7,0c0.5,1.3,1,2.6,1.5,4c1.1,0,2.1,0,3.2,0
		c-2.1-5.2-4.2-10.3-6.4-15.4c-0.8,0-1.6,0-2.3,0c-0.4,0.8-6.3,15.2-6.3,15.4C-78.1,102.8-77.1,102.8-76.1,102.8z M-48.4,98.7
		c-0.1,0-0.2,0-0.3,0c-0.9,0-1.8,0-2.8,0c-0.2,0-0.3,0.1-0.4,0.2c-0.6,0.7-1.3,1.1-2.1,1.4c-0.6,0.2-1.1,0.2-1.7,0.2
		c-1.1,0-2-0.3-2.8-1c-2.7-2.1-2.9-6-0.4-8.3c1.2-1.1,2.6-1.4,4.2-1.3c1.2,0.2,2.2,0.8,3,1.7c0.1,0.1,0.2,0.2,0.4,0.2
		c0.9,0,1.8,0,2.7,0c0.1,0,0.2,0,0.3,0c-0.1-0.1-0.1-0.2-0.1-0.3c-1.4-2.8-3.7-4.3-6.9-4.4c-1.4,0-2.7,0.2-3.9,0.9
		c-2.5,1.4-4,3.5-4.3,6.4c-0.1,1.4,0.1,2.7,0.6,3.9c1.5,3.4,5,5.6,9.4,4.6C-51.1,102.4-49.5,100.9-48.4,98.7
		C-48.5,98.8-48.5,98.8-48.4,98.7z M-116.6,97c0.1,0,0.2,0,0.3,0c0.3,0,0.7,0,1,0c0.6,0,1.3,0,1.9-0.2c1.6-0.4,2.8-1.3,3.3-3
		c0.2-0.7,0.3-1.4,0.2-2.2c-0.2-1.9-1.2-3.2-3-3.9c-0.8-0.3-1.7-0.4-2.5-0.4c-1.3,0-2.6,0-4,0c-0.1,0-0.2,0-0.2,0
		c-0.1,0.4,0,15.2,0,15.4c0.9,0,1.8,0,2.8,0C-116.6,100.9-116.6,99-116.6,97z M-41.6,102.8c0-4.2,0-8.4,0-12.7c0.3,0,0.6,0,0.9,0
		s0.6,0,1,0c0.3,0,0.6,0,0.9,0c0-0.9,0-1.8,0-2.7c-2.9,0-5.7,0-8.5,0c0,0.9,0,1.8,0,2.7c0.9,0,1.9,0,2.8,0c0,0.5,0,0.9,0,1.3
		s0,0.8,0,1.3c0,0.4,0,0.9,0,1.3s0,0.8,0,1.3c0,0.4,0,0.8,0,1.3s0,0.8,0,1.3s0,0.8,0,1.3c0,0.4,0,0.9,0,1.3s0,0.8,0,1.3
		c0,0.4,0,0.8,0,1.2C-43.5,102.8-42.5,102.8-41.6,102.8z"/>
	<path d="M-21.8,95.2c0.1,4.4-3.2,7.2-6.1,7.9c-2.5,0.5-4.8,0.2-6.9-1.3c-1.7-1.2-2.8-2.8-3.2-4.9c-0.9-4.6,1.8-7.9,4.8-9.2
		c1.3-0.6,2.7-0.7,4.2-0.5c2.9,0.3,5,1.9,6.4,4.5C-22,92.8-21.8,94-21.8,95.2z M-35.2,95.2c-0.1,2.8,2.3,5.3,5.2,5.3
		c2.9,0,5.3-2.4,5.3-5.3s-2.4-5.3-5.3-5.3C-33,89.9-35.3,92.4-35.2,95.2z"/>
	<path d="M-95.5,95.2c0.1-3.4,1.7-5.9,4.7-7.4c1.1-0.6,2.4-0.7,3.7-0.7c3.3,0.1,6.2,2,7.4,5c0.5,1.2,0.6,2.5,0.5,3.9
		c-0.3,3.6-2.9,5.9-5.1,6.7c-1.3,0.5-2.6,0.6-4,0.5c-2.6-0.3-4.6-1.6-6-3.8C-95.1,98.1-95.5,96.7-95.5,95.2z M-82,95.2
		c0.1-2.8-2.3-5.3-5.2-5.3c-3,0-5.3,2.4-5.3,5.2c0,3,2.4,5.3,5.2,5.4C-84.4,100.5-82,98-82,95.2z"/>
	<path d="M-107.3,102.8c0-5.1,0-10.3,0-15.4c0.1,0,0.2,0,0.2,0c1.4,0,2.8,0,4.2,0c0.9,0,1.8,0.1,2.6,0.4c1.8,0.6,2.9,2.1,3,4.1
		c0,0.8,0,1.7-0.4,2.4c-0.7,1.6-1.8,2.6-3.5,2.8h-0.1c0,0,0,0-0.1,0.1c1.4,1.9,2.8,3.7,4.2,5.6c-0.1,0-0.2,0-0.3,0c-1,0-2,0-2.9,0
		c-0.2,0-0.3-0.1-0.4-0.2c-1.2-1.7-2.4-3.4-3.5-5.1c-0.1-0.1-0.1-0.2-0.2-0.2c0,0.3,0,0.6,0,0.9s0,0.6,0,0.9s0,0.6,0,0.9
		s0,0.6,0,0.9s0,0.6,0,0.9s0,0.6,0,0.9C-105.4,102.8-106.3,102.8-107.3,102.8z M-104.4,94.7L-104.4,94.7c0.7,0,1.4,0,2,0
		c0.4,0,0.9-0.1,1.3-0.3c0.5-0.3,0.9-0.7,1-1.3c0-0.2,0.1-0.5,0.1-0.7c0-0.8-0.3-1.5-1.1-1.9c-0.3-0.2-0.6-0.3-1-0.3
		c-0.7,0-1.5,0-2.2,0c0,0,0,0-0.1,0C-104.4,91.7-104.4,93.2-104.4,94.7z"/>
	<path d="M-16.3,102.8c-1,0-1.9,0-2.8,0c-0.1-0.2-0.1-15.1,0-15.4c0.1,0,0.1,0,0.2,0c1.4,0,2.8,0,4.2,0c0.9,0,1.8,0.1,2.7,0.4
		c1.8,0.6,2.9,2.1,3,4c0.1,0.9,0,1.8-0.4,2.6c-0.7,1.5-1.8,2.4-3.5,2.7H-13c0,0,0,0-0.1,0.1c1.4,1.9,2.8,3.7,4.2,5.6
		c-0.1,0-0.2,0-0.3,0c-1,0-2,0-2.9,0c-0.2,0-0.3-0.1-0.4-0.2c-1.2-1.7-2.4-3.4-3.5-5.1c-0.1-0.1-0.1-0.2-0.2-0.3c0,0,0,0-0.1,0
		C-16.3,99.2-16.3,101-16.3,102.8z M-16.3,94.7C-16.2,94.7-16.2,94.7-16.3,94.7c0.7,0,1.4,0,2,0c0.5,0,0.9-0.1,1.3-0.4
		c0.5-0.3,0.8-0.6,0.9-1.2c0-0.2,0.1-0.4,0.1-0.6c0-1.3-0.5-2.1-1.8-2.4l0,0c-0.8-0.2-1.7-0.1-2.5-0.1c0,0,0,0-0.1,0
		C-16.3,91.7-16.3,93.2-16.3,94.7z"/>
	<path d="M-76.1,102.8c-1.1,0-2.1,0-3.1,0c0-0.2,5.9-14.7,6.3-15.4c0.8,0,1.5,0,2.3,0c2.1,5.1,4.2,10.3,6.4,15.4c-1.1,0-2.1,0-3.2,0
		c-0.5-1.3-1-2.6-1.5-4c-1.9,0-3.7,0-5.7,0C-75,100.2-75.5,101.5-76.1,102.8z M-71.7,91.6L-71.7,91.6c-0.6,1.5-1.2,2.9-1.8,4.4
		c1.2,0,2.3,0,3.5,0C-70.5,94.6-71.1,93.1-71.7,91.6z"/>
	<path d="M-48.4,98.7c0,0.1,0,0.1-0.1,0.2c-1.1,2.1-2.7,3.6-5.1,4.2c-4.4,1-7.9-1.2-9.4-4.6c-0.5-1.3-0.7-2.6-0.6-3.9
		c0.2-2.9,1.7-5,4.3-6.4c1.2-0.7,2.5-0.9,3.9-0.9c3.1,0.1,5.4,1.6,6.9,4.4c0,0.1,0.1,0.2,0.1,0.3c-0.1,0-0.2,0-0.3,0
		c-0.9,0-1.8,0-2.7,0c-0.2,0-0.3-0.1-0.4-0.2c-0.8-0.9-1.8-1.5-3-1.7c-1.6-0.2-3,0.2-4.2,1.3c-2.5,2.3-2.3,6.3,0.4,8.3
		c0.8,0.6,1.8,0.9,2.8,1c0.6,0,1.1,0,1.7-0.2c0.8-0.3,1.6-0.7,2.1-1.4c0.1-0.1,0.2-0.2,0.4-0.2c0.9,0,1.8,0,2.8,0
		C-48.6,98.7-48.6,98.7-48.4,98.7z"/>
	<path d="M-116.6,97c0,2,0,3.9,0,5.8c-1,0-1.9,0-2.8,0c-0.1-0.2-0.1-15,0-15.4c0.1,0,0.1,0,0.2,0c1.3,0,2.6,0,4,0
		c0.9,0,1.7,0.1,2.5,0.4c1.8,0.7,2.8,2,3,3.9c0.1,0.7,0,1.5-0.2,2.2c-0.5,1.6-1.7,2.6-3.3,3c-0.6,0.1-1.3,0.2-1.9,0.2
		c-0.3,0-0.7,0-1,0C-116.4,97-116.5,97-116.6,97z M-116.6,94.2c0.7,0,1.4,0,2.1,0c0.2,0,0.5-0.1,0.7-0.2c0.6-0.2,0.9-0.6,1.1-1.2
		c0.1-0.3,0.1-0.6,0.1-0.9c0-0.7-0.4-1.3-1.1-1.6c-0.2-0.1-0.4-0.2-0.6-0.2c-0.7,0-1.5,0-2.2,0c0,0,0,0-0.1,0
		C-116.6,91.5-116.6,92.9-116.6,94.2z"/>
	<path d="M-41.6,102.8c-1,0-1.9,0-2.9,0c0-0.4,0-0.8,0-1.2c0-0.4,0-0.8,0-1.3c0-0.4,0-0.9,0-1.3s0-0.8,0-1.3s0-0.8,0-1.3
		s0-0.8,0-1.3c0-0.4,0-0.8,0-1.3c0-0.4,0-0.9,0-1.3s0-0.8,0-1.3c0-0.4,0-0.8,0-1.3c-1,0-1.9,0-2.8,0c0-0.9,0-1.8,0-2.7
		c2.8,0,5.7,0,8.5,0c0,0.9,0,1.8,0,2.7c-0.3,0-0.6,0-0.9,0s-0.6,0-1,0c-0.3,0-0.6,0-0.9,0C-41.6,94.4-41.6,98.6-41.6,102.8z"/>
	<path class="st0" d="M-109.8,73.3c-0.1-0.1,0-0.2,0.1-0.3c0.4-0.3,0.9-0.7,1.3-1c0.6-0.5,1.2-1,1.8-1.5c0.4-0.3,0.8-0.7,1.3-1
		c0.9-0.7,1.8-1.5,2.7-2.2c0.4-0.3,0.7-0.6,1.1-0.9c1.1-0.9,2.1-1.7,3.2-2.6c1.4-1.1,2.7-2.2,4.1-3.3c1.4-1.1,2.7-2.2,4.1-3.3
		c2.8-2.3,5.5-4.5,8.3-6.8c7.4-6.1,14.8-12.1,22.1-18.2c0.1-0.1,0.2-0.2,0.4-0.2c0.1,0,0.2-0.1,0.2-0.1c0.6-0.5,1.3-0.9,1.9-1.4
		c0.4-0.3,0.8-0.6,1.3-0.8c0.2-0.1,0.3-0.2,0.5-0.3c2.8-1.4,5.6-2.7,8.7-3.1c1.9-0.3,3.9-0.4,5.8-0.2c4.8,0.4,9.2,2.2,12.9,5.3
		c4.3,3.5,7,8,8.1,13.4c0.5,2.2,0.6,4.4,0.5,6.6c-0.7,10.3-8.1,18.9-18.2,21.3c-1.3,0.3-2.6,0.5-3.9,0.6c-0.6,0-1.2,0.1-1.7,0.1
		c-20.9,0-41.9,0-62.8,0c-1,0-2,0-3,0c-0.2,0-0.4,0-0.6,0C-109.7,73.3-109.7,73.3-109.8,73.3z"/>
	<path class="st0" d="M-35.2,95.2c-0.1-2.7,2.2-5.3,5.3-5.3c2.8,0,5.3,2.3,5.3,5.3c0,2.9-2.4,5.3-5.3,5.3
		C-32.9,100.5-35.3,98-35.2,95.2z"/>
	<path class="st0" d="M-82,95.2c0.1,2.8-2.3,5.4-5.4,5.3c-2.8,0-5.2-2.4-5.2-5.4c0-2.9,2.4-5.3,5.3-5.2C-84.4,89.9-82,92.3-82,95.2z
		"/>
	<path class="st0" d="M-104.4,94.7c0-1.5,0-3,0-4.5h0.1c0.7,0,1.5,0,2.2,0c0.4,0,0.7,0.1,1,0.3c0.8,0.4,1.1,1.1,1.1,1.9
		c0,0.2,0,0.5-0.1,0.7c-0.1,0.6-0.5,1-1,1.3c-0.4,0.2-0.8,0.3-1.3,0.3c-0.6,0-1.3,0-1.9,0C-104.3,94.8-104.4,94.8-104.4,94.7z"/>
	<path class="st0" d="M-16.3,94.7c0-1.5,0-3,0-4.5c0,0,0,0,0.1,0c0.8,0,1.7-0.1,2.5,0.1l0,0c1.3,0.3,1.8,1.1,1.8,2.4
		c0,0.2,0,0.4-0.1,0.6c-0.1,0.5-0.4,0.9-0.9,1.2c-0.4,0.2-0.9,0.4-1.3,0.4c-0.6,0-1.3,0-1.9,0C-16.2,94.8-16.3,94.8-16.3,94.7z"/>
	<path class="st0" d="M-71.7,91.6c0.6,1.5,1.1,2.9,1.7,4.4c-1.2,0-2.3,0-3.5,0C-72.9,94.6-72.3,93.1-71.7,91.6L-71.7,91.6z"/>
	<path class="st0" d="M-116.6,94.2c0-1.4,0-2.7,0-4h0.1c0.7,0,1.5,0,2.2,0c0.2,0,0.4,0.1,0.6,0.2c0.7,0.3,1,0.9,1.1,1.6
		c0,0.3,0,0.6-0.1,0.9c-0.1,0.6-0.5,1-1.1,1.2c-0.2,0.1-0.5,0.2-0.7,0.2C-115.2,94.2-115.9,94.2-116.6,94.2z"/>
</g>
<path d="M-8.5,16.9h-110.9v66.4H-8.5C-8.4,82.9-8.4,17.1-8.5,16.9z M-59.3,32l-0.3,0.1C-59.5,32-59.5,32-59.3,32z M-19.4,51.3
	c-0.7,10.3-8.1,18.9-18.2,21.3c-1.3,0.3-2.6,0.5-3.9,0.6c-0.6,0-1.2,0.1-1.7,0.1c-20.9,0-41.9,0-62.8,0c-1,0-2,0-3,0
	c-0.2,0-0.4,0-0.6,0c-0.1,0-0.2,0-0.2,0l0,0L-59.2,32l0.1-0.1c0.6-0.5,1.3-0.9,1.9-1.4c0.4-0.3,0.8-0.6,1.3-0.8
	c0.2-0.1,0.3-0.2,0.5-0.3c2.8-1.4,5.6-2.7,8.7-3.1c1.9-0.3,3.9-0.4,5.8-0.2c4.8,0.4,9.2,2.2,12.9,5.3c4.3,3.5,7,8,8.1,13.4
	C-19.4,46.9-19.3,49.1-19.4,51.3z"/>
<path d="M-19.4,51.3c-0.7,10.3-8.1,18.9-18.2,21.3c-1.3,0.3-2.6,0.5-3.9,0.6c-0.6,0-1.2,0.1-1.7,0.1c-20.9,0-41.9,0-62.8,0
	c-1,0-2,0-3,0c-0.2,0-0.4,0-0.6,0c-0.1,0-0.2,0-0.2,0l0,0L-59.2,32l0.1-0.1c0.6-0.5,1.3-0.9,1.9-1.4c0.4-0.3,0.8-0.6,1.3-0.8
	c0.2-0.1,0.3-0.2,0.5-0.3c2.8-1.4,5.6-2.7,8.7-3.1c1.9-0.3,3.9-0.4,5.8-0.2c4.8,0.4,9.2,2.2,12.9,5.3c4.3,3.5,7,8,8.1,13.4
	C-19.4,46.9-19.3,49.1-19.4,51.3z"/>
<path class="st0" d="M-19.4,51.3c-0.7,10.3-8.1,18.9-18.2,21.3c-1.3,0.3-2.6,0.5-3.9,0.6c-0.6,0-68.4,0.1-68.4,0.1l50.7-41.4
	c0.6-0.5,1.3-0.9,1.9-1.4c0.4-0.3,0.8-0.6,1.3-0.8c0.2-0.1,0.3-0.2,0.5-0.3c2.8-1.4,5.6-2.7,8.7-3.1c1.9-0.3,3.9-0.4,5.8-0.2
	c4.8,0.4,9.2,2.2,12.9,5.3c4.3,3.5,7,8,8.1,13.4C-19.4,46.9-19.3,49.1-19.4,51.3z"/>
</svg>
