<?xml version="1.0" encoding="utf-8"?>
<!-- Generator: Adobe Illustrator 23.0.1, SVG Export Plug-In . SVG Version: 6.00 Build 0)  -->
<svg version="1.1" id="Слой_1" xmlns="http://www.w3.org/2000/svg" xmlns:xlink="http://www.w3.org/1999/xlink" x="0px" y="0px"
	 viewBox="0 0 24 24.8" style="enable-background:new 0 0 24 24.8;" xml:space="preserve">
<style type="text/css">
	.st0{fill:#FF3C02;}
</style>
<path class="st0" d="M23.2,3.2C23,2,21.9,1.3,20.7,1.1C14.9,0.2,9,0.2,3.2,1.1C2.5,1.2,1.9,1.4,1.4,1.9c0,0-0.1,0.1-0.1,0.1
	C1.2,2.1,1.2,2.1,1.1,2.2C0.9,2.6,0.7,3.1,0.7,3.6c-0.9,5.8-0.9,11.7,0,17.5c0,1.2,0.8,2.3,2.1,2.5c6.1,1,12.2,1,18.2,0c0,0,0,0,0,0
	c0,0,0,0,0.1,0c0,0,0.1,0,0.1,0c1-0.2,1.8-1,2-2.1C24.3,15.4,24.3,9.3,23.2,3.2z"/>
</svg>
